<?xml version="1.0" standalone="no"?>
<!DOCTYPE svg PUBLIC "-//W3C//DTD SVG 1.1//EN" "http://www.w3.org/Graphics/SVG/1.1/DTD/svg11.dtd" >
<svg xmlns="http://www.w3.org/2000/svg" xmlns:xlink="http://www.w3.org/1999/xlink" version="1.1">
<metadata>
Created by FontForge 20201107 at Fri Feb 17 21:05:18 2006
 By Jimmy Wärting
Copyright (c) Joshua Darden &#38; Phil's Fonts, Inc, 2005. All rights reserved.
</metadata>
<defs>
<font id="Freight-DispLight" horiz-adv-x="379" >
  <font-face 
    font-family="Freight"
    font-weight="300"
    font-stretch="normal"
    units-per-em="1000"
    panose-1="2 0 6 3 8 0 0 2 0 4"
    ascent="750"
    descent="-250"
    x-height="428"
    cap-height="625"
    bbox="-74 -270 957 859"
    underline-thickness="20"
    underline-position="-166"
    unicode-range="U+0020-FB02"
  />
<missing-glyph horiz-adv-x="500" 
 />
    <glyph glyph-name=".notdef" horiz-adv-x="500" 
 />
    <glyph glyph-name="space" unicode=" " horiz-adv-x="139" 
 />
    <glyph glyph-name="exclam" unicode="!" horiz-adv-x="236" 
d="M84 589c-3 21 -4 51 29 51h14c32 0 31 -30 28 -51l-29 -404c-1 -7 -11 -7 -12 0zM120 -15c-28 0 -49 23 -49 46s21 44 49 44c27 0 45 -20 45 -44c0 -23 -18 -46 -45 -46z" />
    <glyph glyph-name="quotedbl" unicode="&#x22;" horiz-adv-x="291" 
d="M254 647h1l39 -17l-152 -227h-7zM127 647l16 -7v-1zM13 403h-8l83 137zM88 540l55 99l4 -2z" />
    <glyph glyph-name="numbersign" unicode="#" horiz-adv-x="511" 
d="M314 204l57 214h-169l-57 -214h169zM125 190h-137v14h140l57 214h-137v15h141l53 199h16l-53 -199h170l52 199h17l-53 -199h137v-15h-141l-56 -214h136v-14h-140l-52 -195h-16l52 195h-170l-51 -195h-17z" />
    <glyph glyph-name="dollar" unicode="$" horiz-adv-x="445" 
d="M131 -8c-35 5 -67 13 -94 24l-16 147h15l22 -71c19 -35 46 -61 79 -76l77 290s-1 0 -2 1c-87 29 -162 70 -162 164c0 97 75 167 186 167c24 0 45 -2 64 -6l29 108h16l-30 -112c13 -3 23 -7 30 -10l46 13l12 -156h-16l-53 118c-7 5 -14 10 -25 14l-65 -245c3 0 3 -1 4 -1
c94 -32 178 -77 178 -188c0 -106 -93 -187 -213 -187c-21 0 -43 1 -66 4l-41 -154h-16zM295 613c-19 7 -39 10 -63 10c-85 0 -138 -54 -138 -122c0 -73 54 -102 136 -134zM152 11c19 -6 41 -9 64 -9c99 0 163 59 163 143c0 79 -48 120 -151 156c-1 1 -19 -72 -38 -145
c-11 -43 -24 -91 -38 -145z" />
    <glyph glyph-name="percent" unicode="%" horiz-adv-x="594" 
d="M147 383c72 0 117 54 117 120s-45 122 -117 122s-116 -56 -116 -122s44 -120 116 -120zM147 365c-84 0 -136 63 -136 138s52 140 136 140c85 0 138 -65 138 -140s-53 -138 -138 -138zM446 2c72 0 117 53 117 120c0 64 -45 121 -117 121s-116 -57 -116 -121
c0 -67 44 -120 116 -120zM446 -17c-84 0 -136 63 -136 138s52 140 136 140c85 0 137 -65 137 -140s-52 -138 -137 -138zM512 640h22l-454 -654h-22z" />
    <glyph glyph-name="ampersand" unicode="&#x26;" horiz-adv-x="679" 
d="M252 393c71 33 92 73 92 126s-42 105 -98 105c-55 0 -96 -47 -96 -103c0 -60 30 -95 102 -128zM219 30c78 0 124 57 189 132c-52 95 -119 168 -198 201c-92 -37 -138 -110 -138 -178c0 -91 58 -155 147 -155zM182 -14c-98 0 -168 77 -168 169c0 90 69 175 181 215
c-57 32 -96 71 -96 127c0 62 61 143 152 143c96 0 144 -62 144 -118c0 -48 -39 -103 -128 -134c69 -35 139 -112 179 -179c57 70 107 145 107 157c1 11 -13 21 -61 26l-28 3l-3 14h215l-3 -14l-26 -3c-44 -3 -48 -14 -79 -53l-113 -142c69 -132 93 -176 141 -176
c37 0 68 33 83 51l10 -10c-25 -27 -65 -76 -121 -76c-47 0 -87 26 -151 163c-73 -89 -132 -163 -235 -163z" />
    <glyph glyph-name="quoteright" unicode="&#x2019;" horiz-adv-x="169" 
d="M23 431c33 27 76 54 76 111c0 44 -39 60 -68 52c-8 19 6 52 43 52c39 0 68 -29 68 -77c0 -61 -59 -117 -112 -146z" />
    <glyph glyph-name="parenleft" unicode="(" horiz-adv-x="340" 
d="M326 -270c-106 58 -261 221 -261 462c0 242 155 405 261 461c2 -2 4 -4 5 -7c3 -5 4 -8 4 -9c-104 -56 -249 -217 -249 -445c0 -229 145 -390 249 -446c0 -1 -1 -4 -4 -9c-1 -3 -3 -5 -5 -7z" />
    <glyph glyph-name="parenright" unicode=")" horiz-adv-x="340" 
d="M15 -270c-1 2 -3 4 -5 7c-3 5 -5 8 -5 9c104 56 249 217 249 446c0 228 -145 389 -249 445c0 1 2 4 5 9c2 3 4 5 5 7c104 -56 260 -218 260 -461c0 -241 -156 -403 -260 -462z" />
    <glyph glyph-name="asterisk" unicode="*" horiz-adv-x="315" 
d="M159 381l-6 92c0 3 -6 6 -7 3l-58 -70l-56 -14c-1 0 -6 6 -6 7l31 50l84 33c3 3 3 8 0 9l-84 35l-32 48c-1 3 2 8 5 8l58 -12l57 -74c1 -3 9 0 9 3l9 95l36 42c3 1 9 -2 8 -2l8 -57l-55 -81c-1 -3 4 -9 5 -8l93 24l52 -24c3 1 3 -7 0 -8l-52 -22l-93 24c-1 1 -6 -5 -5 -8
l51 -80l-4 -56c-1 0 -9 -2 -10 -2z" />
    <glyph glyph-name="plus" unicode="+" horiz-adv-x="447" 
d="M213 226h-198l3 20h195v198h21v-198h195l3 -20h-197l-1 -201h-21v201z" />
    <glyph glyph-name="comma" unicode="," horiz-adv-x="167" 
d="M24 -111c33 22 74 53 74 110c0 42 -42 62 -65 49c-11 25 5 55 42 55c39 0 68 -31 68 -76c0 -59 -52 -119 -112 -146z" />
    <glyph glyph-name="hyphen" unicode="-" horiz-adv-x="294" 
d="M27 255h243l-1 -28h-245z" />
    <glyph glyph-name="period" unicode="." horiz-adv-x="183" 
d="M92 -13c-28 0 -48 21 -48 46c0 23 20 45 48 45c27 0 46 -22 46 -45c0 -25 -19 -46 -46 -46z" />
    <glyph glyph-name="slash" unicode="/" horiz-adv-x="258" 
d="M226 639h19l-211 -875h-19z" />
    <glyph glyph-name="zero" unicode="0" horiz-adv-x="529" 
d="M267 4c98 0 168 98 168 226c0 138 -67 235 -172 235c-96 0 -169 -96 -169 -219c0 -148 65 -242 173 -242zM264 -12c-132 0 -229 105 -229 247c0 141 99 249 231 249c130 0 228 -107 228 -247c0 -145 -97 -249 -230 -249z" />
    <glyph glyph-name="one" unicode="1" horiz-adv-x="316" 
d="M60 15l50 3c24 1 32 3 32 14v405l-109 8l3 11l156 24v-450c0 -7 4 -9 39 -12l46 -3l3 -15h-223z" />
    <glyph glyph-name="two" unicode="2" horiz-adv-x="423" 
d="M22 17c203 168 265 225 265 313c0 61 -38 108 -103 108c-59 0 -101 -26 -138 -89l-10 6c40 77 102 128 175 128c72 0 132 -51 132 -121c0 -97 -88 -171 -257 -310v-2h91c46 0 94 -1 102 -1c69 0 87 29 109 94l8 25l13 -1l-31 -167h-353z" />
    <glyph glyph-name="three" unicode="3" horiz-adv-x="393" 
d="M109 -201c-75 0 -102 35 -102 66c0 25 19 42 42 42c36 0 56 -37 49 -80c4 0 23 -7 39 -7c86 0 175 59 175 176c0 77 -48 140 -144 140c-31 0 -63 -11 -88 -22l-6 10c125 85 193 125 193 207c0 61 -42 109 -110 109c-55 0 -98 -30 -131 -89l-10 8c39 80 99 124 175 124
c74 0 130 -55 130 -125c0 -77 -66 -129 -138 -177v-1c116 3 183 -65 183 -161c0 -113 -110 -220 -257 -220z" />
    <glyph glyph-name="four" unicode="4" horiz-adv-x="444" 
d="M274 62v328h-1l-222 -328h223zM274 17h-263l-1 12l301 446h13v-413l116 -2l-15 -43h-101v-201h-50v201z" />
    <glyph glyph-name="five" unicode="5" horiz-adv-x="378" 
d="M83 -201c-63 0 -97 20 -97 59c0 23 18 38 42 38c32 0 48 -33 51 -68c13 -4 27 -7 42 -7c83 0 170 84 170 181c0 107 -94 179 -242 209l67 259h237l-10 -55h-224l-41 -157c164 -32 260 -115 260 -228c0 -116 -114 -231 -255 -231z" />
    <glyph glyph-name="six" unicode="6" horiz-adv-x="467" 
d="M244 3c83 0 139 67 139 171c0 100 -61 171 -141 171c-56 0 -107 -25 -147 -73c-3 -11 -4 -31 -4 -46c0 -126 65 -223 153 -223zM240 -12c-125 0 -210 100 -210 247c0 199 177 394 411 418l5 -10c-203 -35 -321 -195 -351 -353l2 -2c43 53 107 93 172 93
c107 0 173 -85 173 -185c0 -124 -98 -208 -202 -208z" />
    <glyph glyph-name="seven" unicode="7" horiz-adv-x="413" 
d="M371 414v5h-255c-44 0 -57 -18 -70 -69c-1 -3 -3 -7 -4 -10c-3 -7 -3 -11 -4 -14c-3 0 -5 1 -8 1h-5l17 143h358l2 -13l-268 -642h-49z" />
    <glyph glyph-name="eight" unicode="8" horiz-adv-x="449" 
d="M262 340c51 31 87 79 87 139c0 83 -56 145 -132 145c-68 0 -121 -55 -121 -120c0 -83 74 -124 166 -164zM236 2c83 0 138 54 138 130c0 89 -86 134 -177 177c-63 -27 -113 -83 -113 -155c0 -91 56 -152 152 -152zM221 -13c-107 0 -189 71 -189 162c0 73 66 137 151 166v1
c-74 40 -132 80 -132 156c0 87 79 168 178 168c95 0 171 -68 171 -155c0 -60 -53 -117 -126 -150v-1c81 -43 143 -86 143 -173c0 -99 -84 -174 -196 -174z" />
    <glyph glyph-name="nine" unicode="9" horiz-adv-x="467" 
d="M224 127c58 0 107 24 147 72c3 13 6 31 6 48c0 124 -67 224 -155 224c-83 0 -139 -68 -139 -168c0 -102 61 -176 141 -176zM20 -168c202 34 323 191 352 351h-3c-43 -52 -105 -93 -170 -93c-108 0 -173 89 -173 189c0 123 98 207 202 207c124 0 208 -103 208 -250
c0 -199 -178 -390 -410 -414z" />
    <glyph glyph-name="colon" unicode=":" horiz-adv-x="181" 
d="M92 296c-28 0 -48 23 -48 47c0 23 20 44 48 44c27 0 46 -21 46 -44c0 -24 -19 -47 -46 -47zM92 -13c-28 0 -48 21 -48 46c0 23 20 43 48 43c27 0 46 -20 46 -43c0 -25 -19 -46 -46 -46z" />
    <glyph glyph-name="semicolon" unicode=";" horiz-adv-x="167" 
d="M87 296c-28 0 -48 23 -48 46c0 24 20 45 48 45c27 0 46 -21 46 -45c0 -23 -19 -46 -46 -46zM24 -111c33 22 74 53 74 110c0 42 -42 62 -65 49c-11 25 5 53 42 53c39 0 68 -30 68 -75c0 -59 -52 -117 -112 -144z" />
    <glyph glyph-name="less" unicode="&#x3c;" horiz-adv-x="438" 
d="M13 228v14l397 193l7 -19l-369 -178v-4l369 -180l-7 -19z" />
    <glyph glyph-name="equal" unicode="=" horiz-adv-x="444" 
d="M24 333h396l-3 -21h-390zM27 158h390l3 -20h-396z" />
    <glyph glyph-name="greater" unicode="&#x3e;" horiz-adv-x="438" 
d="M21 54l369 180v4l-369 178l7 19l397 -193v-14l-397 -193z" />
    <glyph glyph-name="question" unicode="?" horiz-adv-x="312" 
d="M143 178c-32 27 -80 76 -80 118c0 54 35 76 104 108c65 29 96 45 96 77c0 43 -44 102 -155 102c-27 0 -51 -5 -66 -9c-5 7 -7 18 -7 31c0 23 18 35 65 35c101 0 180 -81 180 -173c0 -72 -34 -88 -100 -117c-47 -21 -84 -34 -84 -75c0 -32 31 -71 60 -97h-13zM145 -13
c-27 0 -47 21 -47 46c0 21 20 43 47 43c28 0 46 -20 46 -43c0 -25 -18 -46 -46 -46z" />
    <glyph glyph-name="at" unicode="@" horiz-adv-x="786" 
d="M299 105c45 0 106 86 168 199c9 17 18 40 18 52c-5 33 -45 82 -80 82c-20 0 -39 -11 -56 -27c-50 -48 -104 -158 -104 -235c0 -43 27 -71 54 -71zM391 -110c-212 0 -361 146 -361 350c0 219 174 401 390 401c189 0 338 -130 338 -314c0 -142 -106 -272 -226 -272
c-60 0 -98 30 -98 73c0 18 24 118 37 145h-4c-75 -117 -136 -205 -189 -205c-45 0 -83 41 -83 90c0 95 81 203 148 268c24 23 54 38 83 38c40 0 69 -30 74 -87h4l35 104l46 -3l-70 -190l-23 -100c-34 -87 -3 -109 53 -109c99 0 197 112 197 247c0 176 -142 300 -324 300
c-204 0 -372 -175 -372 -384c0 -196 143 -337 347 -337c114 0 214 61 263 139l8 -11c-51 -80 -153 -143 -273 -143z" />
    <glyph glyph-name="A" unicode="A" horiz-adv-x="615" 
d="M120 93c-24 -64 -22 -71 38 -76l37 -3l3 -14h-205l3 14l31 3c45 5 50 15 92 126l156 433l-7 25c13 5 36 20 43 33h9l200 -566c16 -40 18 -48 54 -51l41 -3l3 -14h-235l3 14l45 2c21 1 43 7 36 26l-75 218h-212zM385 278c0 -1 -23 71 -48 141c-14 41 -30 88 -49 140h-2
l-100 -281h199z" />
    <glyph glyph-name="B" unicode="B" horiz-adv-x="550" 
d="M247 345c109 3 167 61 167 133c0 86 -55 129 -166 129h-70v-263zM280 17c8 1 16 1 15 1c107 8 150 74 150 151c0 96 -78 160 -194 160c-13 0 -62 -2 -73 -2v-297l86 -15zM33 14l48 5c27 3 35 5 35 12v564c0 7 -3 9 -42 12l-40 4l-3 14h235c141 0 213 -54 213 -134
c0 -69 -45 -131 -169 -150v-3c133 -9 199 -76 199 -164c0 -109 -89 -174 -242 -174h-237z" />
    <glyph glyph-name="C" unicode="C" horiz-adv-x="648" 
d="M367 -14c-195 0 -335 128 -335 319c0 195 140 335 339 335c68 0 120 -16 161 -36l54 21l10 -179h-14l-58 138c-27 19 -80 40 -155 40c-164 0 -270 -130 -270 -310c0 -184 105 -312 269 -312c103 0 156 42 201 109l29 69h15l-34 -155l-34 -1c-40 -19 -111 -38 -178 -38z
" />
    <glyph glyph-name="D" unicode="D" horiz-adv-x="643" 
d="M266 17c185 5 280 137 280 286c0 178 -99 307 -300 307h-68v-581zM33 14l48 5c27 3 35 5 35 12v565c0 7 -3 8 -42 11l-40 4l-3 14l228 3c223 0 353 -119 353 -304c0 -187 -140 -324 -371 -324h-211z" />
    <glyph glyph-name="E" unicode="E" horiz-adv-x="561" 
d="M30 14l52 5c25 3 34 5 34 12v565c0 7 -4 8 -41 11l-44 4l-3 14h448l16 -163h-12l-11 43c-27 77 -60 105 -168 105h-123v-273h100c83 3 88 11 102 57l10 29l11 -1l-19 -191l-11 1l-2 27c-3 53 -8 57 -96 60l-95 1v-301l124 -3c139 0 172 46 198 115l12 42l15 -1l-38 -172
h-462z" />
    <glyph glyph-name="F" unicode="F" horiz-adv-x="529" 
d="M30 14l51 5c27 3 35 5 35 12v565c0 7 -4 8 -41 11l-44 4l-3 14h450l16 -169l-14 -1l-9 41c-24 75 -49 114 -185 114h-108v-279h86c85 3 88 12 102 58l10 27h11l-19 -191l-11 1l-2 27c-3 53 -7 57 -96 60l-81 1v-282c0 -7 5 -10 42 -13l63 -4l3 -15h-259z" />
    <glyph glyph-name="G" unicode="G" horiz-adv-x="677" 
d="M369 -15c-196 0 -337 127 -337 315c0 195 140 341 340 341c67 0 118 -17 159 -37l55 21l2 -176h-14l-51 135c-27 19 -77 40 -156 40c-160 0 -268 -133 -268 -314c0 -184 111 -307 276 -307c50 0 113 13 142 31v209c0 7 -7 8 -44 11l-55 4l-3 14h246l-3 -14l-47 -5
c-27 -3 -35 -5 -35 -12v-193l62 6l1 -11c-77 -29 -190 -58 -270 -58z" />
    <glyph glyph-name="H" unicode="H" horiz-adv-x="710" 
d="M33 14l48 5c27 3 35 5 35 12v565c0 7 -3 8 -42 11l-40 4l-3 14h236l-3 -14l-51 -5c-27 -3 -35 -5 -35 -12v-266h354v268c0 7 -5 8 -42 11l-44 4l-3 14h237l-3 -14l-49 -5c-23 -2 -35 -6 -35 -12v-565c0 -7 5 -8 42 -11l41 -4l3 -14h-236l3 14l51 5c23 2 35 6 35 12v279
h-354v-281c0 -7 5 -8 42 -11l43 -4l3 -14h-236z" />
    <glyph glyph-name="I" unicode="I" horiz-adv-x="314" 
d="M37 14l54 5c27 3 35 5 35 12v565c0 7 -3 8 -42 11l-46 4l-3 14h245l-3 -14l-54 -5c-27 -3 -35 -5 -35 -12v-565c0 -7 5 -8 42 -11l46 -4l3 -14h-245z" />
    <glyph glyph-name="J" unicode="J" horiz-adv-x="306" 
d="M26 -120c-45 0 -74 19 -74 50c0 24 17 42 42 42c40 0 56 -45 37 -73c63 -1 102 53 102 181v516c0 7 -3 8 -42 11l-46 4l-3 14h242l-3 -14l-51 -5c-27 -3 -35 -5 -35 -12v-524c0 -61 -73 -190 -169 -190z" />
    <glyph glyph-name="K" unicode="K" horiz-adv-x="636" 
d="M33 14l48 5c27 3 35 5 35 12v565c0 7 -3 8 -42 11l-40 4l-3 14h236l-3 -14l-51 -5c-27 -3 -35 -5 -35 -12v-326l208 215c112 112 110 119 47 124l-48 4l-3 14h227l-3 -14l-26 -2c-54 -4 -39 5 -174 -134l-83 -85l211 -322c29 -48 32 -48 64 -51l32 -3l3 -14h-223l4 14
l35 3c35 3 33 24 24 39l-189 295l-106 -107v-215c0 -7 5 -8 42 -11l43 -4l3 -14h-236z" />
    <glyph glyph-name="L" unicode="L" horiz-adv-x="533" 
d="M33 14l49 5c25 3 34 5 34 12v565c0 7 -4 8 -41 11l-41 4l-3 14h253l-3 -14l-68 -5c-27 -3 -35 -8 -35 -13v-574l100 -2c140 0 168 45 197 114l13 50h15l-39 -181h-434z" />
    <glyph glyph-name="M" unicode="M" horiz-adv-x="814" 
d="M19 14l47 3c32 3 51 7 51 22l18 553c-9 7 -30 11 -50 14l-49 5l-3 14h171l208 -530h2l212 530h162l-2 -14l-61 -3c-24 -3 -29 -9 -30 -14l12 -565c0 -7 5 -10 41 -13l44 -2l3 -14h-241l3 14l59 3c24 1 30 7 30 14l-13 552h-3l-234 -577h-12l-217 555c-4 9 -11 16 -14 21
l-15 -544c0 -13 23 -20 68 -21l38 -3l3 -14h-231z" />
    <glyph glyph-name="N" unicode="N" horiz-adv-x="695" 
d="M150 570h-2l1 -532c0 -9 16 -18 59 -21l40 -3l3 -14h-217l3 14l41 3c31 3 52 8 52 23v538c-11 13 -28 21 -67 28l-33 5l-3 14h156l392 -526h1l-1 489c0 11 -16 15 -59 20l-40 3l-3 14h217l-3 -14l-41 -3c-31 -3 -52 -7 -52 -22v-590h-17z" />
    <glyph glyph-name="O" unicode="O" horiz-adv-x="707" 
d="M356 3c149 0 252 117 252 305c0 191 -113 316 -256 316c-148 0 -252 -119 -252 -310c0 -189 111 -311 256 -311zM354 -13c-184 0 -322 131 -322 324c0 178 149 329 320 329c184 0 323 -133 323 -328c0 -177 -149 -325 -321 -325z" />
    <glyph glyph-name="P" unicode="P" horiz-adv-x="526" 
d="M272 304c108 0 165 54 165 154c0 97 -53 154 -185 151l-74 -1v-292c23 -7 55 -12 94 -12zM23 14l58 5c27 3 35 5 35 12v565c0 7 -4 8 -41 11l-51 4l-3 14h252c152 0 229 -60 229 -157c0 -107 -96 -178 -230 -178c-32 0 -71 4 -94 7v-268c0 -7 5 -8 42 -11l63 -4l3 -14
h-266z" />
    <glyph glyph-name="Q" unicode="Q" horiz-adv-x="707" 
d="M356 3c149 0 252 117 252 305s-113 316 -256 316c-148 0 -252 -120 -252 -310c0 -189 111 -311 256 -311zM611 -179c-96 0 -198 27 -257 166c-183 0 -322 132 -322 324c0 178 149 329 320 329c184 0 323 -134 323 -328c0 -152 -108 -281 -247 -316
c64 -142 149 -166 293 -147c0 -3 0 -5 1 -7s1 -4 1 -6c-27 -8 -81 -15 -112 -15z" />
    <glyph glyph-name="R" unicode="R" horiz-adv-x="590" 
d="M282 313c85 5 144 60 144 152s-64 148 -188 144l-60 -2v-279c23 -8 77 -15 104 -15zM23 14l58 5c15 1 35 5 35 12v565c0 7 -3 8 -42 11l-50 4l-3 14h246c147 0 224 -60 224 -153c0 -86 -68 -146 -159 -170l153 -235c29 -41 39 -50 71 -50l28 -3l4 -14h-132l-17 30
l-167 267c-22 0 -74 4 -94 12v-280c0 -7 25 -8 42 -11l50 -4l3 -14h-253z" />
    <glyph glyph-name="S" unicode="S" horiz-adv-x="474" 
d="M229 -14c-60 0 -128 11 -175 30l-17 147h15l22 -70c32 -61 85 -91 159 -91c99 0 162 59 162 143c0 83 -54 124 -167 162c-86 30 -162 70 -162 164c0 99 76 169 186 169c47 0 85 -10 109 -21l47 12l11 -156h-15l-54 120c-24 16 -59 29 -102 29c-85 0 -138 -54 -138 -122
c0 -77 62 -109 154 -141c94 -32 179 -75 179 -185c0 -108 -93 -190 -214 -190z" />
    <glyph glyph-name="T" unicode="T" horiz-adv-x="604" 
d="M175 14l61 5c27 3 35 5 35 12v579h-65c-91 -3 -119 -45 -148 -100l-13 -45h-15l37 160h480l23 -161h-14l-9 46c-32 76 -55 97 -152 100h-62v-581c0 -7 3 -8 42 -11l53 -4l3 -14h-259z" />
    <glyph glyph-name="U" unicode="U" horiz-adv-x="664" 
d="M345 -14c-156 0 -237 64 -237 229v380c0 7 -3 9 -42 12l-50 4l-3 14h253l-3 -14l-58 -5c-27 -3 -35 -8 -35 -13v-381c0 -139 69 -192 197 -192c127 0 182 74 182 211v357c0 11 -25 17 -68 20l-40 3l-3 14h224l-3 -14l-41 -3c-31 -3 -50 -7 -50 -22v-355
c0 -161 -80 -245 -223 -245z" />
    <glyph glyph-name="V" unicode="V" horiz-adv-x="619" 
d="M90 557c-16 39 -21 48 -54 51l-41 3l-3 14h233l-3 -14l-45 -2c-20 -3 -43 -7 -36 -27l193 -514h2l164 463c21 64 24 71 -38 76l-36 4l-3 14h205l-3 -14l-32 -3c-45 -5 -51 -13 -91 -126l-176 -492h-20z" />
    <glyph glyph-name="W" unicode="W" horiz-adv-x="963" 
d="M91 557c-15 39 -19 48 -54 51l-40 3l-2 14h233l-3 -14l-45 -2c-21 -1 -42 -7 -35 -27l180 -515h2l150 403l-31 87c-13 39 -21 48 -56 51l-40 3l-3 14h233l-3 -14l-45 -2c-21 -1 -42 -8 -35 -27l184 -514h1l152 460c21 58 20 74 -42 79l-38 4l-3 14h206l-3 -14l-31 -3
c-45 -5 -44 -13 -84 -126l-165 -492h-21l-166 455h-1l-171 -455h-23z" />
    <glyph glyph-name="X" unicode="X" horiz-adv-x="612" 
d="M-4 14l32 2c45 3 59 13 110 88l140 207l-165 244c-24 37 -33 50 -63 53l-38 3l-3 14h239l-3 -12l-49 -3c-33 0 -38 -12 -19 -47l137 -207h1l116 175c45 74 29 74 -22 77l-42 3l-4 14h228l-2 -14l-33 -2c-44 -3 -53 -3 -104 -81l-126 -186l92 -136c27 -40 57 -86 92 -137
c22 -33 26 -49 63 -52l38 -3l2 -14h-238l3 14l47 2c33 1 40 13 20 45l-155 235h-1c0 1 -32 -48 -65 -97c-19 -29 -41 -61 -65 -97c-46 -73 -35 -81 17 -84l41 -4l4 -14h-228z" />
    <glyph glyph-name="Y" unicode="Y" horiz-adv-x="596" 
d="M171 14l61 5c23 2 35 6 35 12v246l-164 277c-20 36 -30 51 -66 54l-38 3l-3 14h237l-3 -14l-47 -2c-33 -1 -37 -9 -17 -44l151 -262h3l123 220c36 67 32 81 -26 86l-41 2l-3 14h219l-3 -14l-32 -2c-45 -3 -51 -4 -94 -85l-135 -238v-257c0 -7 4 -8 43 -11l53 -4l3 -14
h-259z" />
    <glyph glyph-name="Z" unicode="Z" horiz-adv-x="546" 
d="M31 11l402 596v3h-189c-110 0 -139 -38 -169 -119l-10 -42h-14l17 176h438v-11l-400 -595v-2l193 -2c138 0 168 50 192 135l13 47h16l-29 -197h-460v11z" />
    <glyph glyph-name="bracketleft" unicode="[" horiz-adv-x="325" 
d="M67 633h244v-18h-224v-835h224v-17h-244v870z" />
    <glyph glyph-name="backslash" unicode="\" horiz-adv-x="246" 
d="M0 639h19l211 -875h-19z" />
    <glyph glyph-name="bracketright" unicode="]" horiz-adv-x="325" 
d="M14 -220h223v835h-223v18h244v-870h-244v17z" />
    <glyph glyph-name="asciicircum" unicode="^" 
d="M185 674h9l123 -186h-10l-116 126h-2l-117 -126h-10z" />
    <glyph glyph-name="underscore" unicode="_" horiz-adv-x="453" 
d="M15 0h423l3 -34h-429z" />
    <glyph glyph-name="quoteleft" unicode="&#x2018;" horiz-adv-x="171" 
d="M96 430c-39 0 -69 27 -69 74c0 61 59 118 113 148l6 -7c-33 -27 -76 -55 -76 -113c0 -44 38 -59 69 -51c10 -17 -7 -51 -43 -51z" />
    <glyph glyph-name="a" unicode="a" horiz-adv-x="399" 
d="M162 25c43 0 76 26 107 53l5 158c-150 -40 -187 -78 -187 -137c0 -47 28 -74 75 -74zM323 -11c-28 0 -57 25 -56 68l-1 2c-41 -39 -84 -69 -128 -69c-64 0 -106 41 -106 97c0 72 59 117 243 165l1 44c5 100 -47 123 -100 123c-45 0 -91 -28 -91 -42c0 -5 21 -17 21 -41
c0 -19 -16 -36 -39 -36c-21 0 -38 10 -38 37c0 45 102 105 178 105c78 0 126 -31 121 -143l-10 -241c-1 -28 9 -34 28 -34c15 0 33 13 50 32l8 -9c-23 -25 -46 -58 -81 -58z" />
    <glyph glyph-name="b" unicode="b" horiz-adv-x="472" 
d="M237 4c92 0 150 84 150 204c0 111 -60 195 -150 195c-56 0 -93 -30 -128 -65v-265c28 -39 73 -69 128 -69zM56 590c0 39 -5 47 -30 50l-44 4l2 12l125 26v-322l2 -2c36 40 87 81 155 81c100 0 181 -85 181 -212c0 -139 -104 -240 -213 -240c-53 0 -100 17 -131 37h-3
l-36 -43h-8v609z" />
    <glyph glyph-name="c" unicode="c" horiz-adv-x="413" 
d="M223 -12c-109 0 -198 93 -198 217c0 134 96 237 221 237c81 0 140 -39 140 -90c0 -25 -19 -44 -39 -44c-27 0 -44 19 -37 48c0 23 14 26 14 33c-3 13 -39 38 -81 38c-85 0 -160 -84 -160 -197c0 -117 70 -202 161 -202c63 0 103 25 140 82l12 -7
c-39 -71 -94 -115 -173 -115z" />
    <glyph glyph-name="d" unicode="d" horiz-adv-x="487" 
d="M363 65l-2 1c-37 -39 -87 -79 -155 -79c-100 0 -181 87 -181 216c0 140 104 236 221 236c49 0 83 -12 115 -31h1h1v183c0 39 -3 49 -30 50l-51 5l2 11l132 25v-633c0 -17 2 -26 25 -29l46 -3l-1 -11l-122 -21zM235 23c57 0 95 30 128 65v264c-27 39 -74 70 -127 70
c-92 0 -150 -81 -150 -200c0 -112 58 -199 149 -199z" />
    <glyph glyph-name="e" unicode="e" horiz-adv-x="417" 
d="M326 300c0 72 -32 126 -99 126c-56 0 -115 -53 -136 -128zM223 -12c-109 0 -198 93 -198 217c0 131 87 237 210 237c97 0 152 -64 152 -134c0 -11 -1 -17 -2 -26l-297 2c-3 -15 -5 -38 -5 -55c0 -117 70 -201 161 -201c63 0 102 25 141 82l11 -7
c-39 -71 -94 -115 -173 -115z" />
    <glyph glyph-name="f" unicode="f" horiz-adv-x="270" 
d="M24 14l34 2c21 1 30 0 30 11v366l-74 2l8 32h64l2 26c11 141 92 220 178 220c36 0 61 -18 61 -45c0 -17 -14 -34 -35 -34c-25 0 -46 21 -51 48l-2 7l-14 2c-60 -15 -84 -89 -84 -188v-36h112l-9 -34h-103v-367c0 -7 0 -9 32 -10l51 -2l3 -14h-206z" />
    <glyph glyph-name="g" unicode="g" horiz-adv-x="435" 
d="M200 158c63 0 108 54 108 131c0 87 -39 139 -107 139c-61 0 -106 -57 -106 -132c0 -84 44 -138 105 -138zM208 -227c87 0 171 56 171 128c0 56 -35 89 -122 92c-32 0 -55 -2 -119 -5c-32 -13 -86 -56 -86 -110c0 -63 68 -105 156 -105zM177 -248c-101 0 -168 45 -168 114
c0 60 63 103 109 125v1c-56 7 -93 26 -93 65c0 47 57 88 106 99v1c-51 17 -94 67 -94 130c0 88 73 155 165 155c39 0 73 -11 100 -30l120 14l-4 -40l-95 9l-1 -3c24 -23 43 -58 43 -98c0 -85 -75 -150 -168 -150c-20 0 -41 3 -50 6c-35 -8 -68 -33 -68 -62
c0 -31 22 -45 78 -45c21 0 89 2 113 2c96 0 147 -44 147 -108c0 -107 -103 -185 -240 -185z" />
    <glyph glyph-name="h" unicode="h" horiz-adv-x="484" 
d="M11 14l32 2c23 1 30 1 30 12v558c0 43 -4 51 -31 55l-39 3l1 10l123 26v-325l1 -1c44 36 100 88 168 88c32 0 58 -10 77 -29c22 -22 33 -54 33 -97v-289c0 -7 0 -10 36 -11l31 -2l3 -14h-191l3 14l35 2c27 1 30 5 30 12v269c0 72 -35 103 -91 103c-51 0 -99 -30 -135 -65
v-124v-185c0 -7 4 -7 36 -10l32 -2l3 -14h-190z" />
    <glyph glyph-name="i" unicode="i" horiz-adv-x="219" 
d="M101 539c-29 0 -43 24 -43 43c0 20 15 46 44 46s41 -26 41 -45s-14 -44 -42 -44zM19 14l35 2c23 1 30 1 30 12v312c0 47 -5 55 -32 58l-39 5l2 10l123 28v-415c0 -7 4 -7 36 -10l32 -2l3 -14h-193z" />
    <glyph glyph-name="j" unicode="j" horiz-adv-x="203" 
d="M93 539c-29 0 -42 24 -42 43c0 20 14 46 43 46s42 -26 42 -45s-14 -44 -43 -44zM-8 -253c-43 0 -66 20 -66 49c0 20 16 35 37 35c25 0 44 -22 49 -62c47 8 65 59 65 144v427c0 47 -5 55 -32 58l-39 5l2 10l123 28v-477c0 -113 -57 -217 -139 -217z" />
    <glyph glyph-name="k" unicode="k" horiz-adv-x="449" 
d="M11 14l32 2c23 1 30 1 30 12v558c0 43 -4 52 -31 55l-39 3l1 10l123 26v-479l129 124c24 25 48 54 48 67c0 11 -12 18 -36 20l-32 3l-2 13h188l-3 -14l-31 -3c-33 -3 -50 -28 -106 -84c-12 -11 -22 -20 -31 -28c-15 -15 -30 -28 -30 -29l140 -212c22 -33 24 -39 57 -42
l23 -2l3 -14h-114l-18 30l-130 204l-55 -53v-155c0 -7 4 -7 35 -10l32 -2l3 -14h-189z" />
    <glyph glyph-name="l" unicode="l" horiz-adv-x="216" 
d="M16 14l33 2c23 1 31 1 31 12v553c0 47 -5 56 -32 60l-42 3l2 10l125 26v-654c0 -7 3 -9 36 -10l32 -2l3 -14h-191z" />
    <glyph glyph-name="m" unicode="m" horiz-adv-x="745" 
d="M20 14l33 2c23 1 31 1 31 12v311c0 47 -5 58 -32 59l-39 5l1 10l124 28l-4 -84h3c37 37 92 86 154 86c33 0 59 -11 78 -30c13 -15 24 -34 28 -58h1c37 37 94 88 157 88c35 0 59 -10 80 -33c21 -21 32 -52 32 -93v-290c0 -7 0 -8 36 -11l30 -2l3 -14h-189l3 14l33 2
c25 1 30 5 30 12v272c0 69 -32 100 -89 100c-48 0 -99 -28 -122 -59v-40v-274c0 -7 0 -8 36 -11l33 -2l3 -14h-191l3 14l33 2c25 1 29 5 29 12v272c0 69 -32 100 -88 100c-48 0 -92 -27 -123 -58v-131v-185c0 -7 5 -7 37 -10l33 -2l3 -14h-193z" />
    <glyph glyph-name="n" unicode="n" horiz-adv-x="494" 
d="M20 14l33 2c23 1 31 1 31 12v313c0 45 -6 54 -30 57l-41 5l1 10l124 28l-2 -86l3 -2c42 37 100 89 167 89c33 0 59 -10 78 -29c21 -23 33 -54 33 -98v-288c0 -7 1 -8 36 -11l32 -2l3 -14h-191l3 14l34 2c27 1 31 5 31 12v269c0 72 -36 103 -93 103
c-51 0 -98 -30 -135 -65v-124v-185c0 -7 5 -7 37 -10l31 -2l4 -14h-192z" />
    <glyph glyph-name="o" unicode="o" horiz-adv-x="486" 
d="M245 1c87 0 154 92 154 208c0 73 -16 136 -55 175c-27 29 -61 43 -101 43c-89 0 -157 -90 -157 -204c0 -77 22 -145 61 -184c25 -25 58 -38 98 -38zM244 -13c-122 0 -218 95 -218 225c0 131 96 230 219 230c120 0 216 -96 216 -224c0 -133 -97 -231 -217 -231z" />
    <glyph glyph-name="p" unicode="p" horiz-adv-x="486" 
d="M251 4c92 0 149 84 149 204c0 111 -58 195 -149 195c-56 0 -95 -30 -128 -65v-270c27 -35 73 -64 128 -64zM5 -237l34 2c23 3 31 2 31 11v566c0 44 -5 53 -30 56l-41 5l1 10l124 28l-1 -81l3 -2c35 40 86 81 154 81c100 0 181 -85 181 -212c0 -139 -103 -240 -214 -240
c-49 0 -91 15 -122 30h-2v-242c0 -7 4 -9 36 -10l49 -2l3 -14h-209z" />
    <glyph glyph-name="q" unicode="q" horiz-adv-x="479" 
d="M235 23c57 0 95 30 128 65v263c-27 40 -74 71 -127 71c-92 0 -150 -81 -150 -199c0 -112 58 -200 149 -200zM279 -237l48 2c32 1 36 3 36 10v290l-2 1c-37 -39 -87 -79 -155 -79c-100 0 -181 87 -181 216c0 139 104 236 221 236c47 0 93 -19 124 -39h3l36 47h7v-671
c0 -9 8 -8 31 -11l34 -2l3 -14h-208z" />
    <glyph glyph-name="r" unicode="r" horiz-adv-x="331" 
d="M20 14l33 2c23 1 31 1 31 12v313c0 45 -6 54 -30 57l-40 5l2 10l122 28l-3 -163h1c39 108 81 166 136 166c35 0 51 -22 51 -45c0 -21 -15 -42 -39 -42c-21 0 -40 17 -43 49c-45 -15 -77 -64 -104 -156v-224c0 -7 0 -9 31 -10l48 -2l3 -14h-202z" />
    <glyph glyph-name="s" unicode="s" horiz-adv-x="354" 
d="M163 -13c-43 0 -86 7 -122 22l-11 114h14l20 -59c27 -43 66 -63 105 -63c64 0 108 37 108 93c0 60 -45 84 -117 107c-56 16 -118 49 -118 120c0 68 60 122 138 122c32 0 59 -7 86 -18l32 9l7 -112h-15l-38 82c-19 12 -40 24 -75 24c-57 0 -91 -32 -91 -80
c0 -56 47 -74 106 -96c64 -21 131 -45 131 -132c0 -72 -64 -133 -160 -133z" />
    <glyph glyph-name="t" unicode="t" horiz-adv-x="299" 
d="M172 -13c-45 0 -90 17 -90 93l5 314l-76 2l8 29l69 3l4 86l50 -1l-1 -86h142l-9 -33h-133c-1 -57 -2 -107 -3 -152c-2 -76 -3 -151 -3 -152c-3 -51 25 -69 61 -69c37 0 60 21 87 40l7 -9c-35 -33 -70 -65 -118 -65z" />
    <glyph glyph-name="u" unicode="u" horiz-adv-x="473" 
d="M353 73h-2c-43 -35 -99 -86 -166 -86c-35 0 -59 10 -82 30c-23 23 -31 56 -31 97v288c0 7 0 7 -37 10l-31 3l-3 13h124v-296c0 -72 34 -104 94 -104c51 0 95 28 132 63v101v182c0 31 -6 37 -37 38l-31 3l-3 13h125v-378c0 -17 2 -25 26 -28l45 -3l-2 -10l-123 -24z" />
    <glyph glyph-name="v" unicode="v" horiz-adv-x="446" 
d="M66 366c-16 40 -18 43 -42 46l-28 3l-3 13h183l-2 -13l-29 -3c-28 -1 -33 -11 -22 -39l119 -306l100 263c24 69 26 78 -23 81l-28 4l-3 13h164l-3 -13l-20 -3c-34 -3 -38 -14 -70 -89l-128 -331h-20z" />
    <glyph glyph-name="w" unicode="w" horiz-adv-x="688" 
d="M66 363c-13 42 -18 46 -41 49l-28 3l-2 13h184l-4 -13l-27 -3c-29 -1 -35 -10 -24 -38l108 -307l103 253l-17 47c-15 39 -20 44 -44 45l-28 3l-4 13h185l-3 -13l-28 -3c-29 -1 -33 -10 -22 -38l122 -309l86 264c21 65 20 79 -28 82l-25 4l-3 13h161l-3 -13l-18 -3
c-34 -3 -42 -16 -68 -91l-108 -329h-21l-124 305l-126 -305h-20z" />
    <glyph glyph-name="x" unicode="x" horiz-adv-x="441" 
d="M4 14l30 4c21 3 40 14 61 46l101 139l-125 177c-15 21 -24 29 -44 32l-24 3l-3 13h184l-3 -13l-29 -3c-21 -3 -27 -12 -19 -28l97 -136h1l86 126c11 19 10 34 -15 37l-34 4l-3 13h162l-3 -13l-29 -4c-23 -3 -40 -14 -63 -49l-91 -126l134 -187c15 -23 23 -30 43 -33
l24 -2l3 -14h-183l3 14l28 3c21 3 27 13 16 28l-102 148h-1l-95 -140c-11 -17 -10 -34 15 -35l35 -4l3 -14h-163z" />
    <glyph glyph-name="y" unicode="y" horiz-adv-x="435" 
d="M77 -259c-32 0 -56 19 -56 42s16 42 41 42c23 0 42 -18 46 -49c40 9 59 51 88 142l22 70v1l-153 377c-15 39 -18 45 -41 46l-29 3l-3 13h183l-2 -13l-27 -3c-28 -1 -33 -11 -22 -39l122 -309l97 267c24 66 18 77 -28 80l-28 4l-3 13h165l-3 -13l-23 -3
c-34 -3 -36 -14 -65 -89l-121 -325l-32 -104c-31 -105 -65 -153 -128 -153z" />
    <glyph glyph-name="z" unicode="z" horiz-adv-x="403" 
d="M20 11l281 403h-95c-104 0 -120 -24 -142 -83l-9 -46h-13l4 143h319v-10l-283 -403l107 -1c102 0 127 28 159 81l22 48h12l-36 -143h-326v11z" />
    <glyph glyph-name="braceleft" unicode="{" horiz-adv-x="295" 
d="M278 -255c-113 7 -182 59 -182 150c0 85 41 142 41 211c0 59 -58 75 -142 83l-5 9l5 10c72 5 142 25 142 84c0 68 -41 127 -41 212c0 89 69 141 182 148l2 -12c-99 -12 -136 -45 -136 -105c0 -70 44 -130 44 -212c0 -68 -60 -111 -148 -123v-3c88 -13 148 -55 148 -123
c0 -81 -44 -143 -44 -211c0 -59 37 -95 136 -107z" />
    <glyph glyph-name="bar" unicode="|" horiz-adv-x="191" 
d="M86 647h18v-875h-18v875z" />
    <glyph glyph-name="braceright" unicode="}" horiz-adv-x="295" 
d="M15 -244c99 12 135 48 135 107c0 68 -43 130 -43 211c0 68 59 110 147 123v3c-88 12 -147 55 -147 123c0 82 43 142 43 212c0 60 -36 93 -135 105l1 12c115 -7 183 -59 183 -148c0 -85 -42 -144 -42 -212c0 -59 72 -79 143 -84l4 -10l-4 -9c-85 -8 -143 -24 -143 -83
c0 -69 42 -126 42 -211c0 -91 -68 -143 -183 -150z" />
    <glyph glyph-name="asciitilde" unicode="~" 
d="M259 155c-47 0 -111 62 -149 62c-24 0 -41 -8 -49 -55h-11c8 63 32 94 72 94c47 0 111 -62 149 -62c23 0 40 12 48 55h10c-8 -63 -31 -94 -70 -94z" />
    <glyph glyph-name="exclamdown" unicode="&#xa1;" horiz-adv-x="236" 
d="M118 545c-28 0 -47 20 -47 43c0 25 19 48 47 48c27 0 47 -23 47 -48c0 -23 -20 -43 -47 -43zM111 -18c-33 0 -31 28 -28 49l29 406c1 5 11 5 12 0l30 -406c0 -21 5 -49 -28 -49h-15z" />
    <glyph glyph-name="cent" unicode="&#xa2;" horiz-adv-x="413" 
d="M294 418c-11 5 -26 10 -53 10c-84 0 -158 -78 -158 -198c0 -93 45 -166 109 -193zM139 -159c8 29 15 54 21 76c11 39 20 75 20 76c-90 21 -156 109 -156 214c0 131 95 236 222 236c21 0 38 -2 53 -6c1 -1 12 46 24 89l24 88h16l-49 -181c41 -13 64 -37 64 -65
c0 -20 -19 -35 -38 -35c-23 0 -37 17 -40 45l-93 -346c12 -3 24 -5 37 -5c64 0 105 27 140 83l12 -6c-40 -72 -95 -117 -174 -117c-9 0 -18 1 -27 3l-40 -149h-16z" />
    <glyph glyph-name="sterling" unicode="&#xa3;" horiz-adv-x="480" 
d="M154 52c-27 13 -51 23 -78 23c-37 0 -55 -13 -55 -39c0 -24 21 -38 48 -38c33 0 62 22 85 54zM55 282l3 17h103c-7 33 -13 67 -13 102c0 124 80 231 201 231c63 0 109 -26 109 -69c0 -19 -14 -37 -34 -37c-32 0 -45 35 -26 67c-15 11 -41 20 -69 20
c-71 0 -127 -60 -127 -159c0 -55 9 -104 16 -155h128l3 -17h-129c3 -23 5 -46 5 -70c0 -47 -14 -98 -39 -141c53 -19 108 -40 157 -40c57 0 93 27 106 116l11 -2c-3 -100 -58 -160 -131 -160c-59 0 -112 32 -160 59c-27 -36 -61 -60 -100 -60c-36 0 -62 20 -62 52
c0 37 28 57 79 57c25 0 53 -7 82 -16c11 25 17 50 17 77c0 40 -10 83 -21 128h-109z" />
    <glyph glyph-name="fraction" unicode="&#x2044;" horiz-adv-x="496" 
d="M477 640h24l-482 -654h-24z" />
    <glyph glyph-name="yen" unicode="&#xa5;" horiz-adv-x="593" 
d="M173 14l61 5c27 3 36 5 36 12v123h-198l3 18h195v113h-196l-1 17h188l-152 252c-20 36 -30 51 -66 54l-38 3l-3 14h235l-3 -14l-47 -2c-33 0 -36 -9 -17 -44l151 -255h3l117 213c34 66 33 81 -26 86l-41 2l-3 14h220l-3 -14l-32 -2c-46 -3 -50 -4 -93 -85l-126 -222h182
l-1 -17h-188v-113h187l3 -18h-190v-125c0 -7 5 -8 42 -11l54 -4l3 -14h-259z" />
    <glyph glyph-name="florin" unicode="&#x192;" horiz-adv-x="464" 
d="M68 -54c-45 0 -69 23 -69 50c0 25 18 38 38 38c27 0 48 -29 21 -63c10 -5 34 4 42 4c45 11 68 54 111 272l22 118l-98 2l8 26l98 6c25 104 53 164 88 196c31 31 63 43 98 43c40 0 73 -22 73 -53c0 -25 -18 -41 -37 -41c-29 0 -52 30 -22 65l-18 3c-11 1 -22 2 -31 2
c-47 -8 -69 -69 -98 -218h128l-7 -31h-126l-20 -89c-26 -127 -67 -247 -111 -291c-29 -28 -59 -39 -90 -39z" />
    <glyph glyph-name="section" unicode="&#xa7;" horiz-adv-x="412" 
d="M284 157c31 16 65 50 65 86c0 60 -56 96 -116 125c-39 20 -77 39 -104 64c-32 -12 -67 -48 -67 -84c0 -59 57 -93 117 -126c39 -19 76 -40 105 -65zM188 -49c-71 0 -124 35 -124 71c0 17 12 34 32 34c31 0 44 -32 27 -63c17 -19 42 -28 75 -28c51 0 84 43 84 90
c0 53 -61 87 -122 119c-67 37 -134 74 -134 147c0 55 44 93 95 120c-18 20 -27 44 -27 72c0 61 50 128 127 128c72 0 114 -38 114 -73c0 -16 -13 -34 -33 -34c-31 0 -44 32 -27 63c-16 19 -31 29 -63 29c-52 0 -83 -44 -83 -91c0 -55 60 -87 122 -119
c66 -34 136 -73 136 -147c0 -53 -44 -93 -95 -121c18 -20 27 -44 27 -72c0 -60 -54 -125 -131 -125z" />
    <glyph glyph-name="currency" unicode="&#xa4;" horiz-adv-x="473" 
d="M289 -14c-112 0 -198 94 -222 233h-64l3 17h58c-2 19 -3 39 -3 59c0 19 0 38 3 54h-61l3 18h61c24 155 116 267 245 267c83 0 142 -40 142 -89c0 -23 -19 -40 -38 -40c-44 0 -48 55 -24 76c-13 20 -43 39 -83 39c-96 0 -171 -111 -187 -253h206l3 -18h-212
c1 -11 -1 -24 -1 -35c0 -27 2 -53 7 -78h203l3 -17h-203c24 -120 91 -196 180 -196c65 0 114 36 145 95l10 -7c-37 -72 -90 -125 -174 -125z" />
    <glyph glyph-name="quotesingle" unicode="'" horiz-adv-x="149" 
d="M127 647l16 -7v-1zM13 403h-8l83 137zM88 540l55 99l4 -2z" />
    <glyph glyph-name="quotedblleft" unicode="&#x201c;" horiz-adv-x="322" 
d="M96 430c-39 0 -69 27 -69 74c0 61 59 118 113 148l6 -7c-33 -27 -76 -55 -76 -113c0 -44 38 -59 69 -51c10 -17 -7 -51 -43 -51zM247 430c-37 0 -68 27 -68 74c0 60 59 119 112 148l7 -7c-33 -27 -76 -55 -76 -113c0 -44 39 -59 68 -51c10 -18 -5 -51 -43 -51z" />
    <glyph glyph-name="guillemotleft" unicode="&#xab;" horiz-adv-x="402" 
d="M13 215v14l188 149l5 -8l-127 -148l128 -149l-5 -8zM176 215v14l194 166l5 -8l-136 -165l137 -166l-5 -8z" />
    <glyph glyph-name="guilsinglleft" unicode="&#x2039;" horiz-adv-x="243" 
d="M19 215v14l194 166l5 -8l-137 -165l137 -166l-4 -8z" />
    <glyph glyph-name="guilsinglright" unicode="&#x203a;" horiz-adv-x="243" 
d="M23 56l137 166l-136 165l5 8l193 -166v-14l-194 -167z" />
    <glyph glyph-name="fi" unicode="&#xfb01;" horiz-adv-x="481" 
d="M23 14l35 2c21 1 30 1 30 12v365l-74 2l8 32h64l2 25c11 145 96 221 200 221c53 0 86 -23 86 -59c0 -17 -15 -34 -35 -34c-29 0 -52 27 -49 66l-40 10c-75 -15 -109 -80 -109 -192v-37h191l65 13v-414c0 -7 5 -7 38 -10l32 -2l2 -14h-192l3 14l35 2c23 1 30 1 30 12v366
h-204v-368c0 -7 -1 -9 32 -10l51 -2l3 -14h-207z" />
    <glyph glyph-name="fl" unicode="&#xfb02;" horiz-adv-x="482" 
d="M397 680v-654c0 -7 5 -9 38 -10l32 -2l2 -14h-192l3 14l34 2c23 1 31 1 31 12v366h-204v-368c0 -7 -1 -9 32 -10l51 -2l3 -14h-207l3 14l35 2c21 1 30 1 30 12v365l-74 2l8 32h64l2 25c11 145 96 221 199 221c30 0 53 -6 68 -17zM345 582h-2c-31 0 -52 25 -52 62l-41 12
c-76 -15 -109 -80 -109 -192v-37h204v155z" />
    <glyph glyph-name="endash" unicode="&#x2013;" horiz-adv-x="439" 
d="M13 251h415l-1 -26h-417z" />
    <glyph glyph-name="dagger" unicode="&#x2020;" horiz-adv-x="444" 
d="M213 409h-195l-2 17h197v199h18v-199h198l-2 -17h-196v-565h-18v565z" />
    <glyph glyph-name="daggerdbl" unicode="&#x2021;" horiz-adv-x="444" 
d="M213 31h-197l2 18h195v370h-195l-2 18h197v188h18v-188h198l-2 -18h-196v-370h196l2 -18h-198v-187h-18v187z" />
    <glyph glyph-name="periodcentered" unicode="&#xb7;" horiz-adv-x="182" 
d="M92 167c-28 0 -48 21 -48 46c0 23 20 45 48 45c27 0 46 -22 46 -45c0 -25 -19 -46 -46 -46z" />
    <glyph glyph-name="paragraph" unicode="&#xb6;" horiz-adv-x="422" 
d="M344 302c-28 -7 -66 -9 -93 -9c-145 0 -221 65 -221 169s71 163 219 163h114v-657h-19v334z" />
    <glyph glyph-name="bullet" unicode="&#x2022;" horiz-adv-x="434" 
d="M217 39c-28 0 -116 36 -135 57c-19 22 -57 106 -57 136c0 28 37 116 57 136s108 56 136 56c27 0 118 -35 136 -56c21 -18 56 -109 56 -136c0 -29 -35 -115 -56 -136c-19 -22 -108 -57 -137 -57z" />
    <glyph glyph-name="quotesinglbase" unicode="&#x201a;" horiz-adv-x="169" 
d="M23 -112c33 27 76 54 76 111c0 44 -39 60 -68 52c-8 19 6 52 43 52c39 0 68 -29 68 -77c0 -61 -59 -117 -112 -146z" />
    <glyph glyph-name="quotedblbase" unicode="&#x201e;" horiz-adv-x="321" 
d="M175 -112c32 27 76 54 76 111c0 44 -39 60 -68 52c-8 19 6 52 42 52c39 0 68 -29 68 -77c0 -61 -59 -117 -112 -146zM23 -112c33 27 76 54 76 111c0 44 -39 60 -68 52c-8 19 6 52 43 52c39 0 68 -29 68 -77c0 -61 -59 -117 -112 -146z" />
    <glyph glyph-name="quotedblright" unicode="&#x201d;" horiz-adv-x="321" 
d="M175 431c32 27 76 54 76 111c0 44 -39 60 -68 52c-8 19 6 52 42 52c39 0 68 -29 68 -77c0 -61 -59 -117 -112 -146zM23 431c33 27 76 54 76 111c0 44 -39 60 -68 52c-8 19 6 52 43 52c39 0 68 -29 68 -77c0 -61 -59 -117 -112 -146z" />
    <glyph glyph-name="guillemotright" unicode="&#xbb;" horiz-adv-x="408" 
d="M194 73l128 149l-128 148l5 8l188 -149v-14l-189 -150zM25 56l137 166l-136 165l5 8l193 -166v-14l-194 -167z" />
    <glyph glyph-name="ellipsis" unicode="&#x2026;" horiz-adv-x="546" 
d="M246 70c9 5 18 8 28 8s19 -3 26 -8c9 5 18 8 27 8c28 0 46 -22 46 -45c0 -25 -18 -46 -46 -46c-9 0 -18 3 -27 8c-7 -5 -16 -8 -26 -8c-11 0 -20 3 -27 8c-7 -5 -16 -8 -27 -8c-28 0 -48 21 -48 46c0 23 20 45 48 45c10 0 19 -3 26 -8z" />
    <glyph glyph-name="perthousand" unicode="&#x2030;" horiz-adv-x="910" 
d="M147 365c-84 0 -136 63 -136 138s52 140 136 140c85 0 138 -65 138 -140s-53 -138 -138 -138zM512 640h22l-454 -654h-22zM762 -17c-85 0 -137 63 -137 138s52 140 137 140s137 -65 137 -140s-52 -138 -137 -138zM446 -17c-84 0 -136 63 -136 138s52 140 136 140
c85 0 137 -65 137 -140s-52 -138 -137 -138zM147 383c72 0 117 54 117 120s-45 122 -117 122s-116 -56 -116 -122s44 -120 116 -120zM762 1c72 0 116 52 116 120c0 65 -44 122 -116 122s-116 -57 -116 -122c0 -67 44 -120 116 -120zM446 1c72 0 117 53 117 120
c0 65 -45 122 -117 122s-116 -57 -116 -122c0 -67 44 -120 116 -120z" />
    <glyph glyph-name="questiondown" unicode="&#xbf;" horiz-adv-x="312" 
d="M167 551c-28 0 -46 20 -46 43c0 25 18 46 46 46c27 0 47 -21 47 -46c0 -23 -20 -43 -47 -43zM212 -14c-101 0 -180 83 -180 174c0 73 34 85 100 117c47 21 84 34 84 75c0 31 -31 71 -60 96h13c32 -27 80 -74 80 -117c0 -53 -33 -77 -104 -108c-65 -29 -96 -45 -96 -78
c0 -41 44 -101 156 -101c27 0 51 5 66 9c4 -6 6 -17 6 -32c0 -21 -18 -35 -65 -35z" />
    <glyph glyph-name="grave" unicode="`" 
d="M49 680h68l118 -184h-8z" />
    <glyph glyph-name="acute" unicode="&#xb4;" 
d="M262 680h68l-177 -184h-9z" />
    <glyph glyph-name="circumflex" unicode="&#x2c6;" 
d="M185 674h9l123 -186h-10l-116 126h-2l-117 -126h-10z" />
    <glyph glyph-name="tilde" unicode="&#x2dc;" 
d="M259 504c-47 0 -111 62 -149 62c-24 0 -41 -8 -49 -55h-11c8 63 32 94 72 94c47 0 111 -62 149 -62c23 0 40 12 48 55h10c-8 -63 -31 -94 -70 -94z" />
    <glyph glyph-name="macron" unicode="&#xaf;" horiz-adv-x="378" 
d="M70 554h245l-4 -28h-247z" />
    <glyph glyph-name="breve" unicode="&#x2d8;" 
d="M190 492c-80 0 -106 85 -122 153h11c27 -72 61 -115 112 -115s85 43 112 115h11c-16 -68 -41 -153 -124 -153z" />
    <glyph glyph-name="dotaccent" unicode="&#x2d9;" 
d="M189 529c-28 0 -42 24 -42 43s14 44 42 44c29 0 43 -25 43 -44s-14 -43 -43 -43z" />
    <glyph glyph-name="dieresis" unicode="&#xa8;" 
d="M269 514c-28 0 -42 23 -42 40c0 19 14 44 42 44c27 0 40 -25 40 -44c0 -17 -13 -40 -40 -40zM110 514c-27 0 -40 23 -40 40c0 19 13 44 40 44c28 0 42 -25 42 -44c0 -17 -14 -40 -42 -40z" />
    <glyph glyph-name="ring" unicode="&#x2da;" 
d="M190 516c45 0 73 35 73 76s-28 76 -73 76c-47 0 -74 -35 -74 -76s27 -76 74 -76zM190 502c-56 0 -89 41 -89 90s33 90 89 90s89 -41 89 -90s-33 -90 -89 -90z" />
    <glyph glyph-name="cedilla" unicode="&#xb8;" 
d="M96 -242c93 11 148 43 148 88c0 33 -27 52 -75 52c-27 0 -48 -5 -63 -9v9l94 107h18l-66 -75c68 11 128 -16 128 -70c0 -60 -76 -101 -181 -109z" />
    <glyph glyph-name="hungarumlaut" unicode="&#x2dd;" 
d="M323 680h61l-162 -184h-10zM186 680h61l-162 -184h-10z" />
    <glyph glyph-name="ogonek" unicode="&#x2db;" 
d="M183 -223c-45 0 -89 36 -89 84c0 76 90 131 149 155h19c-80 -39 -124 -84 -124 -143c0 -43 28 -68 63 -68s56 20 72 37l5 -7c-23 -29 -51 -58 -95 -58z" />
    <glyph glyph-name="caron" unicode="&#x2c7;" 
d="M62 674h10l117 -127h2l116 127h10l-123 -186h-9z" />
    <glyph glyph-name="emdash" unicode="&#x2014;" horiz-adv-x="907" 
d="M13 251h883l-1 -26h-885z" />
    <glyph glyph-name="AE" unicode="&#xc6;" horiz-adv-x="829" 
d="M391 278v319h-4l-182 -319h186zM-51 14l50 4c27 3 45 15 98 106l267 465c5 9 -2 15 -53 18l-51 4l-3 14h486l17 -163h-12l-10 43c-29 77 -57 104 -167 104h-119v-272h87c82 3 95 12 109 58l10 29l10 -2l-19 -191l-10 2l-3 27c-3 52 -15 56 -102 59l-82 1v-300l105 -3
c140 3 184 43 211 114l12 42l14 -1l-37 -172h-462l3 15l58 5c27 3 35 7 35 14v226h-196l-82 -144c-43 -77 -56 -94 6 -99l50 -5l3 -12h-226z" />
    <glyph glyph-name="ordfeminine" unicode="&#xaa;" horiz-adv-x="300" 
d="M126 315c29 0 59 20 78 35l3 118c-109 -24 -137 -56 -137 -97c0 -33 19 -56 56 -56zM101 287c-44 0 -76 33 -76 72c0 55 51 92 182 121l2 46c3 71 -35 89 -75 89c-33 0 -67 -19 -67 -30c0 -4 15 -15 15 -32c0 -15 -12 -27 -29 -27c-19 0 -30 10 -30 29c0 35 80 80 136 80
c64 0 95 -28 92 -111l-7 -179c-1 -23 7 -30 23 -30c15 0 26 10 39 21l3 -6c-15 -17 -35 -43 -62 -43c-23 0 -42 19 -45 50v1c-32 -28 -68 -51 -101 -51z" />
    <glyph glyph-name="Lslash" unicode="&#x141;" horiz-adv-x="538" 
d="M21 233l-1 18l96 30v315c0 7 -4 8 -41 11l-41 4l-3 14h253l-3 -14l-68 -5c-27 -3 -35 -8 -35 -13v-293l107 34l2 -20l-109 -33v-262l100 -2c140 0 168 45 197 114l13 50h15l-39 -181h-434l3 14l49 5c25 3 34 5 34 12v231z" />
    <glyph glyph-name="Oslash" unicode="&#xd8;" horiz-adv-x="707" 
d="M497 572c-42 34 -90 51 -145 51c-148 0 -252 -119 -252 -309c0 -113 38 -199 101 -254zM362 305l-148 -256c41 -31 88 -46 142 -46c149 0 252 117 252 305c0 111 -38 197 -98 253zM528 592c89 -56 147 -155 147 -280c0 -177 -149 -325 -321 -325c-57 0 -109 13 -156 36
c-11 -19 -24 -42 -35 -62c-7 -12 -13 -23 -20 -34h-19l60 104c-92 53 -152 152 -152 280c0 178 149 329 320 329c59 0 113 -13 161 -40l52 89h19z" />
    <glyph glyph-name="OE" unicode="&#x152;" horiz-adv-x="904" 
d="M467 18v576l-87 12c-187 -5 -280 -132 -280 -281c0 -179 99 -307 300 -307h67zM386 0c-219 -3 -354 115 -354 303s140 320 373 320l414 2l16 -163h-11l-11 43c-27 78 -65 104 -174 104h-111v-272h86c83 3 95 11 109 57l10 29l11 -1l-19 -191l-11 1l-2 27
c-3 53 -15 57 -103 60l-81 1v-300l112 -3c141 3 177 44 204 114l12 42l14 -1l-38 -172h-446z" />
    <glyph glyph-name="ordmasculine" unicode="&#xba;" horiz-adv-x="363" 
d="M185 297c64 0 113 65 113 157c0 59 -14 108 -43 137c-20 22 -45 33 -76 33c-64 0 -114 -64 -114 -155c0 -63 17 -114 48 -145c17 -17 44 -27 72 -27zM182 285c-97 0 -167 77 -167 173s74 177 167 177c96 0 166 -77 166 -174c0 -96 -72 -176 -166 -176z" />
    <glyph glyph-name="ae" unicode="&#xe6;" horiz-adv-x="666" 
d="M573 300c1 72 -32 126 -100 126c-56 0 -116 -53 -137 -128zM166 22c47 0 89 34 126 85c-13 31 -20 63 -20 98c0 11 0 23 1 31c-147 -40 -186 -79 -186 -137c0 -47 31 -77 79 -77zM141 -13c-64 0 -109 44 -109 99c0 71 58 119 242 167l4 43c5 97 -48 123 -102 123
c-45 0 -91 -28 -91 -42c0 -5 21 -17 21 -41c0 -19 -16 -36 -39 -36c-21 0 -38 10 -38 37c0 45 102 105 178 105c69 0 103 -24 115 -80c39 51 88 80 160 80c97 0 152 -64 152 -134c0 -11 -1 -17 -2 -26l-299 2c-3 -15 -4 -38 -4 -55c0 -117 68 -201 160 -201
c63 0 106 25 142 82l12 -7c-40 -71 -95 -115 -174 -115c-73 0 -137 42 -170 106c-45 -59 -102 -107 -158 -107z" />
    <glyph glyph-name="dotlessi" unicode="&#x131;" horiz-adv-x="219" 
d="M19 14l35 2c23 1 30 1 30 12v312c0 47 -5 55 -32 58l-39 5l2 10l123 28v-415c0 -7 4 -7 36 -10l32 -2l3 -14h-193z" />
    <glyph glyph-name="lslash" unicode="&#x142;" horiz-adv-x="211" 
d="M7 225l1 19l72 22v315c0 45 -4 56 -32 59l-42 3l2 11l125 26v-398l67 21l1 -19l-68 -21v-237c0 -7 3 -9 36 -10l32 -2l3 -14h-191l3 14l33 2c23 1 31 1 31 12v219z" />
    <glyph glyph-name="oslash" unicode="&#xf8;" horiz-adv-x="486" 
d="M346 382c1 1 -199 -342 -200 -342l1 -1c25 -25 58 -38 98 -38c87 0 154 92 154 208c0 72 -17 134 -53 173zM333 394c-25 22 -55 33 -90 33c-89 0 -157 -90 -157 -204c0 -72 18 -131 49 -171zM120 25c-57 39 -94 106 -94 187c0 131 96 230 219 230c36 0 70 -8 101 -25
l83 142h19l-33 -57c-19 -32 -40 -69 -55 -94c61 -39 101 -106 101 -190c0 -133 -97 -231 -217 -231c-41 0 -79 11 -111 30c-12 -23 -30 -53 -46 -80c-9 -16 -19 -32 -28 -48h-18z" />
    <glyph glyph-name="oe" unicode="&#x153;" horiz-adv-x="791" 
d="M701 300c0 72 -32 126 -99 126c-58 0 -115 -53 -136 -128zM245 1c87 0 154 92 154 208c0 73 -16 136 -55 175c-27 29 -61 43 -101 43c-89 0 -157 -89 -157 -206c0 -76 22 -142 61 -181c24 -24 59 -39 98 -39zM244 -13c-122 0 -218 95 -218 225c0 128 96 230 219 230
c84 0 153 -45 186 -118c35 72 97 118 180 118c96 0 151 -64 151 -134c0 -11 0 -17 -3 -26l-297 2c-3 -15 -4 -38 -4 -55c0 -117 68 -201 160 -201c63 0 103 25 142 82l11 -7c-39 -71 -96 -115 -175 -115c-75 0 -136 45 -168 114c-36 -71 -103 -115 -184 -115z" />
    <glyph glyph-name="germandbls" unicode="&#xdf;" horiz-adv-x="481" 
d="M280 411c79 -42 177 -145 177 -248c0 -96 -62 -174 -145 -174c-64 0 -113 28 -113 75c0 24 17 43 40 43c41 0 49 -61 6 -69c12 -21 34 -36 69 -36c57 0 94 50 94 122c0 99 -60 201 -188 277v5c87 16 132 55 132 142c0 59 -40 113 -100 113c-72 0 -111 -54 -111 -169v-492
h-120l3 14l34 2c21 1 30 0 30 11v365l-74 3l7 29l65 4l2 31c11 129 73 215 167 215c93 0 148 -52 148 -127s-56 -117 -123 -136z" />
    <glyph glyph-name="trademark" unicode="&#x2122;" horiz-adv-x="550" 
d="M251 414l21 1c12 0 14 1 14 12l6 178c-4 7 -6 7 -13 8l-23 2l-1 10h74l61 -175h3l65 175h75l-2 -10l-26 -2c-5 -1 -7 -2 -7 -5l5 -189c0 -3 0 -2 11 -3l22 -2l1 -11h-100v11l26 2c5 1 8 2 8 4l-4 187h-3l-77 -200h-11l-70 196c0 1 0 1 -1 1s-1 0 -2 1l-5 -179
c0 -9 2 -11 17 -11l21 -1l1 -11h-88zM75 414l28 2c6 1 9 3 9 4v195h-13c-43 -1 -51 -12 -59 -31l-6 -23h-9l8 64h191l3 -65h-8l-5 24c-7 23 -17 31 -58 31h-13v-196c0 -3 0 -2 11 -3l25 -2l1 -11h-106z" />
    <glyph glyph-name="Eth" unicode="&#xd0;" horiz-adv-x="664" 
d="M328 325l3 -18h-153v-278l88 -12c185 5 280 137 280 286c0 178 -99 307 -300 307h-68v-285h150zM34 307l3 18h79v271c0 7 -5 8 -42 11l-40 4l-3 14l228 3c223 0 353 -119 353 -304c0 -187 -140 -324 -371 -324h-211l3 14l48 5c27 3 35 5 35 12v276h-82z" />
    <glyph glyph-name="plusminus" unicode="&#xb1;" horiz-adv-x="311" 
d="M46 15l50 3c23 1 35 5 35 14v409c0 7 -2 11 -37 12l-46 3l-3 15h223l-3 -15l-50 -3c-23 -1 -34 -5 -34 -14v-409c0 -7 3 -9 36 -12l46 -3l3 -15h-223z" />
    <glyph glyph-name="Thorn" unicode="&#xde;" horiz-adv-x="532" 
d="M272 171c108 0 165 53 165 153c0 97 -53 153 -185 150l-74 -1v-290c23 -5 55 -12 94 -12zM23 14l58 5c27 3 35 5 35 12v565c0 7 -4 8 -41 11l-51 4l-3 14h253l-3 -14l-58 -5c-27 -3 -35 -5 -35 -12v-103c11 1 34 0 55 0h40c152 0 229 -59 229 -159
c0 -105 -96 -178 -230 -178c-32 0 -71 6 -94 9v-134c0 -7 5 -8 42 -11l63 -4l3 -14h-266z" />
    <glyph glyph-name="divide" unicode="&#xf7;" horiz-adv-x="550" 
d="M274 7c128 0 221 99 221 230c0 129 -94 229 -220 229c-125 0 -221 -99 -221 -230s93 -229 220 -229zM274 -12c-139 0 -239 104 -239 247s102 249 241 249c137 0 239 -105 239 -247c0 -143 -102 -249 -241 -249z" />
    <glyph glyph-name="degree" unicode="&#xb0;" horiz-adv-x="322" 
d="M161 383c72 0 119 54 119 121c0 68 -47 122 -119 122s-117 -54 -117 -122c0 -67 45 -121 117 -121zM161 366c-84 0 -136 63 -136 138c0 76 52 139 136 139c85 0 137 -63 137 -139c0 -75 -52 -138 -137 -138z" />
    <glyph glyph-name="thorn" unicode="&#xfe;" horiz-adv-x="472" 
d="M234 4c91 0 152 83 152 202c0 110 -58 196 -150 196c-53 0 -92 -32 -127 -67v-267c28 -35 77 -64 125 -64zM-9 -237l35 2c23 3 30 1 30 12v810c0 40 -5 50 -32 53l-42 3l2 11l125 26v-322l2 -2c40 41 90 83 155 83c101 0 181 -86 181 -208c0 -139 -103 -244 -218 -244
c-47 0 -88 14 -117 29h-3v-241c0 -7 4 -9 37 -10l48 -2l3 -14h-209z" />
    <glyph glyph-name="registered" unicode="&#xae;" horiz-adv-x="713" 
d="M352 316c53 3 91 33 91 88c0 53 -40 88 -112 84l-37 -1v-162c13 -5 43 -9 58 -9zM196 141l38 3c9 1 21 5 21 9v325c0 4 0 5 -23 8l-35 3l-3 11h155c88 0 135 -37 135 -93c0 -49 -41 -87 -93 -99l89 -138c17 -25 25 -25 44 -28l17 -1l3 -12h-83l-10 18l-98 156
c-15 1 -46 5 -59 8v-160c0 -4 14 -7 25 -8l36 -2l2 -12h-163zM357 2c171 0 310 139 310 311s-139 312 -310 312c-172 0 -311 -140 -311 -312s139 -311 311 -311zM357 -14c-181 0 -327 146 -327 327c0 180 146 328 327 328s327 -148 327 -328c0 -181 -146 -327 -327 -327z
" />
    <glyph glyph-name="eth" unicode="&#xf0;" horiz-adv-x="475" 
d="M236 0c87 0 149 74 149 207s-64 220 -155 220c-87 0 -151 -82 -151 -202c0 -141 64 -225 157 -225zM84 517l2 20l114 38c-37 22 -81 38 -134 49l7 10c60 -8 110 -25 157 -49l121 40l2 -20l-100 -33c126 -75 195 -207 195 -326c0 -143 -86 -259 -217 -259
c-124 0 -214 100 -214 225c0 124 94 230 214 230c45 0 90 -17 121 -49c-27 67 -67 125 -131 169z" />
    <glyph glyph-name="copyright" unicode="&#xa9;" horiz-adv-x="713" 
d="M366 117c-116 0 -200 78 -200 192s82 198 198 198c44 0 75 -10 99 -22l34 12l6 -107h-9l-36 79c-17 11 -47 27 -96 27c-90 0 -154 -75 -154 -182c0 -109 66 -186 161 -186c59 0 89 24 117 67l18 41h9l-20 -96l-21 -2c-23 -9 -67 -21 -106 -21zM357 2
c171 0 310 139 310 311s-139 312 -310 312c-172 0 -311 -140 -311 -312s139 -311 311 -311zM357 -14c-181 0 -327 146 -327 327c0 180 146 328 327 328s327 -148 327 -328c0 -181 -146 -327 -327 -327z" />
    <glyph glyph-name="Aacute" unicode="&#xc1;" horiz-adv-x="615" 
d="M120 93c-24 -64 -22 -71 38 -76l37 -3l3 -14h-205l3 14l31 3c45 5 50 15 92 126l156 433l-7 25c13 5 36 20 43 33h9l200 -566c16 -40 18 -48 54 -51l41 -3l3 -14h-235l3 14l45 2c21 1 43 7 36 26l-75 218h-212zM385 278c0 -1 -23 71 -48 141c-14 41 -30 88 -49 140h-2
l-100 -281h199zM385 849h68l-177 -184h-9z" />
    <glyph glyph-name="Acircumflex" unicode="&#xc2;" horiz-adv-x="615" 
d="M120 93c-24 -64 -22 -71 38 -76l37 -3l3 -14h-205l3 14l31 3c45 5 50 15 92 126l156 433l-7 25c13 5 36 20 43 33h9l200 -566c16 -40 18 -48 54 -51l41 -3l3 -14h-235l3 14l45 2c21 1 43 7 36 26l-75 218h-212zM385 278c0 -1 -23 71 -48 141c-14 41 -30 88 -49 140h-2
l-100 -281h199zM304 843h9l123 -186h-10l-116 126h-2l-117 -126h-10z" />
    <glyph glyph-name="Adieresis" unicode="&#xc4;" horiz-adv-x="615" 
d="M120 93c-24 -64 -22 -71 38 -76l37 -3l3 -14h-205l3 14l31 3c45 5 50 15 92 126l156 433l-7 25c13 5 36 20 43 33h9l200 -566c16 -40 18 -48 54 -51l41 -3l3 -14h-235l3 14l45 2c21 1 43 7 36 26l-75 218h-212zM385 278c0 -1 -23 71 -48 141c-14 41 -30 88 -49 140h-2
l-100 -281h199zM383 677c-28 0 -42 23 -42 40c0 19 14 44 42 44c27 0 40 -25 40 -44c0 -17 -13 -40 -40 -40zM224 677c-27 0 -40 23 -40 40c0 19 13 44 40 44c28 0 42 -25 42 -44c0 -17 -14 -40 -42 -40z" />
    <glyph glyph-name="Agrave" unicode="&#xc0;" horiz-adv-x="615" 
d="M120 93c-24 -64 -22 -71 38 -76l37 -3l3 -14h-205l3 14l31 3c45 5 50 15 92 126l156 433l-7 25c13 5 36 20 43 33h9l200 -566c16 -40 18 -48 54 -51l41 -3l3 -14h-235l3 14l45 2c21 1 43 7 36 26l-75 218h-212zM385 278c0 -1 -23 71 -48 141c-14 41 -30 88 -49 140h-2
l-100 -281h199zM146 849h68l118 -184h-8z" />
    <glyph glyph-name="Aring" unicode="&#xc5;" horiz-adv-x="615" 
d="M306 624c45 0 73 35 73 76c0 40 -28 76 -73 76c-47 0 -74 -36 -74 -76c0 -41 27 -76 74 -76zM180 260l-60 -167c-24 -64 -22 -71 38 -76l37 -3l3 -14h-205l3 14l31 3c45 5 50 15 92 126l170 468c-45 8 -72 45 -72 89c0 48 33 90 89 90s89 -42 89 -90
c0 -43 -24 -78 -67 -87l192 -545c16 -40 18 -48 54 -51l41 -3l3 -14h-235l3 14l45 2c21 1 43 7 36 26l-75 218h-212zM385 278c0 -1 -23 71 -48 141c-14 41 -30 88 -49 140h-2l-100 -281h199z" />
    <glyph glyph-name="Atilde" unicode="&#xc3;" horiz-adv-x="615" 
d="M120 93c-24 -64 -22 -71 38 -76l37 -3l3 -14h-205l3 14l31 3c45 5 50 15 92 126l156 433l-7 25c13 5 36 20 43 33h9l200 -566c16 -40 18 -48 54 -51l41 -3l3 -14h-235l3 14l45 2c21 1 43 7 36 26l-75 218h-212zM385 278c0 -1 -23 71 -48 141c-14 41 -30 88 -49 140h-2
l-100 -281h199zM373 673c-47 0 -111 62 -149 62c-24 0 -41 -8 -49 -55h-11c8 63 32 94 72 94c47 0 111 -62 149 -62c23 0 40 12 48 55h10c-8 -63 -31 -94 -70 -94z" />
    <glyph glyph-name="Ccedilla" unicode="&#xc7;" horiz-adv-x="648" 
d="M367 -14c-195 0 -335 128 -335 319c0 195 140 335 339 335c68 0 120 -16 161 -36l54 21l10 -179h-14l-58 138c-27 19 -80 40 -155 40c-164 0 -270 -130 -270 -310c0 -184 105 -312 269 -312h16l2 3h18s0 -1 -1 -2c81 9 126 48 166 108l29 69h15l-34 -155l-34 -1
c-36 -16 -97 -34 -157 -37l-50 -57c68 11 128 -16 128 -70c0 -60 -76 -101 -181 -109l-3 7c93 11 148 43 148 88c0 33 -27 52 -75 52c-27 0 -48 -5 -63 -9v9l77 88h-2z" />
    <glyph glyph-name="Eacute" unicode="&#xc9;" horiz-adv-x="561" 
d="M30 14l52 5c25 3 34 5 34 12v565c0 7 -4 8 -41 11l-44 4l-3 14h448l16 -163h-12l-11 43c-27 77 -60 105 -168 105h-123v-273h100c83 3 88 11 102 57l10 29l11 -1l-19 -191l-11 1l-2 27c-3 53 -8 57 -96 60l-95 1v-301l124 -3c139 0 172 46 198 115l12 42l15 -1l-38 -172
h-462zM367 849h68l-177 -184h-9z" />
    <glyph glyph-name="Ecircumflex" unicode="&#xca;" horiz-adv-x="561" 
d="M30 14l52 5c25 3 34 5 34 12v565c0 7 -4 8 -41 11l-44 4l-3 14h448l16 -163h-12l-11 43c-27 77 -60 105 -168 105h-123v-273h100c83 3 88 11 102 57l10 29l11 -1l-19 -191l-11 1l-2 27c-3 53 -8 57 -96 60l-95 1v-301l124 -3c139 0 172 46 198 115l12 42l15 -1l-38 -172
h-462zM272 843h9l123 -186h-10l-116 126h-2l-117 -126h-10z" />
    <glyph glyph-name="Edieresis" unicode="&#xcb;" horiz-adv-x="561" 
d="M30 14l52 5c25 3 34 5 34 12v565c0 7 -4 8 -41 11l-44 4l-3 14h448l16 -163h-12l-11 43c-27 77 -60 105 -168 105h-123v-273h100c83 3 88 11 102 57l10 29l11 -1l-19 -191l-11 1l-2 27c-3 53 -8 57 -96 60l-95 1v-301l124 -3c139 0 172 46 198 115l12 42l15 -1l-38 -172
h-462zM353 677c-28 0 -42 23 -42 40c0 19 14 44 42 44c27 0 40 -25 40 -44c0 -17 -13 -40 -40 -40zM194 677c-27 0 -40 23 -40 40c0 19 13 44 40 44c28 0 42 -25 42 -44c0 -17 -14 -40 -42 -40z" />
    <glyph glyph-name="Egrave" unicode="&#xc8;" horiz-adv-x="561" 
d="M30 14l52 5c25 3 34 5 34 12v565c0 7 -4 8 -41 11l-44 4l-3 14h448l16 -163h-12l-11 43c-27 77 -60 105 -168 105h-123v-273h100c83 3 88 11 102 57l10 29l11 -1l-19 -191l-11 1l-2 27c-3 53 -8 57 -96 60l-95 1v-301l124 -3c139 0 172 46 198 115l12 42l15 -1l-38 -172
h-462zM145 849h68l118 -184h-8z" />
    <glyph glyph-name="Iacute" unicode="&#xcd;" horiz-adv-x="314" 
d="M37 14l54 5c27 3 35 5 35 12v565c0 7 -3 8 -42 11l-46 4l-3 14h245l-3 -14l-54 -5c-27 -3 -35 -5 -35 -12v-565c0 -7 5 -8 42 -11l46 -4l3 -14h-245zM240 849h68l-177 -184h-9z" />
    <glyph glyph-name="Icircumflex" unicode="&#xce;" horiz-adv-x="314" 
d="M37 14l54 5c27 3 35 5 35 12v565c0 7 -3 8 -42 11l-46 4l-3 14h245l-3 -14l-54 -5c-27 -3 -35 -5 -35 -12v-565c0 -7 5 -8 42 -11l46 -4l3 -14h-245zM153 843h9l123 -186h-10l-116 126h-2l-117 -126h-10z" />
    <glyph glyph-name="Idieresis" unicode="&#xcf;" horiz-adv-x="314" 
d="M37 14l54 5c27 3 35 5 35 12v565c0 7 -3 8 -42 11l-46 4l-3 14h245l-3 -14l-54 -5c-27 -3 -35 -5 -35 -12v-565c0 -7 5 -8 42 -11l46 -4l3 -14h-245zM237 680c-28 0 -42 23 -42 40c0 19 14 44 42 44c27 0 40 -25 40 -44c0 -17 -13 -40 -40 -40zM78 680
c-27 0 -40 23 -40 40c0 19 13 44 40 44c28 0 42 -25 42 -44c0 -17 -14 -40 -42 -40z" />
    <glyph glyph-name="Igrave" unicode="&#xcc;" horiz-adv-x="314" 
d="M37 14l54 5c27 3 35 5 35 12v565c0 7 -3 8 -42 11l-46 4l-3 14h245l-3 -14l-54 -5c-27 -3 -35 -5 -35 -12v-565c0 -7 5 -8 42 -11l46 -4l3 -14h-245zM8 849h68l118 -184h-8z" />
    <glyph glyph-name="Ntilde" unicode="&#xd1;" horiz-adv-x="695" 
d="M150 570h-2l1 -532c0 -9 16 -18 59 -21l40 -3l3 -14h-217l3 14l41 3c31 3 52 8 52 23v538c-11 13 -28 21 -67 28l-33 5l-3 14h156l392 -526h1l-1 489c0 11 -16 15 -59 20l-40 3l-3 14h217l-3 -14l-41 -3c-31 -3 -52 -7 -52 -22v-590h-17zM427 673c-47 0 -111 62 -149 62
c-24 0 -41 -8 -49 -55h-11c8 63 32 94 72 94c47 0 111 -62 149 -62c23 0 40 12 48 55h10c-8 -63 -31 -94 -70 -94z" />
    <glyph glyph-name="Oacute" unicode="&#xd3;" horiz-adv-x="707" 
d="M356 3c149 0 252 117 252 305c0 191 -113 316 -256 316c-148 0 -252 -119 -252 -310c0 -189 111 -311 256 -311zM354 -13c-184 0 -322 131 -322 324c0 178 149 329 320 329c184 0 323 -133 323 -328c0 -177 -149 -325 -321 -325zM440 849h68l-177 -184h-9z" />
    <glyph glyph-name="Ocircumflex" unicode="&#xd4;" horiz-adv-x="707" 
d="M356 3c149 0 252 117 252 305c0 191 -113 316 -256 316c-148 0 -252 -119 -252 -310c0 -189 111 -311 256 -311zM354 -13c-184 0 -322 131 -322 324c0 178 149 329 320 329c184 0 323 -133 323 -328c0 -177 -149 -325 -321 -325zM349 843h9l123 -186h-10l-116 126h-2
l-117 -126h-10z" />
    <glyph glyph-name="Odieresis" unicode="&#xd6;" horiz-adv-x="707" 
d="M356 3c149 0 252 117 252 305c0 191 -113 316 -256 316c-148 0 -252 -119 -252 -310c0 -189 111 -311 256 -311zM354 -13c-184 0 -322 131 -322 324c0 178 149 329 320 329c184 0 323 -133 323 -328c0 -177 -149 -325 -321 -325zM433 677c-28 0 -42 23 -42 40
c0 19 14 44 42 44c27 0 40 -25 40 -44c0 -17 -13 -40 -40 -40zM274 677c-27 0 -40 23 -40 40c0 19 13 44 40 44c28 0 42 -25 42 -44c0 -17 -14 -40 -42 -40z" />
    <glyph glyph-name="Ograve" unicode="&#xd2;" horiz-adv-x="707" 
d="M356 3c149 0 252 117 252 305c0 191 -113 316 -256 316c-148 0 -252 -119 -252 -310c0 -189 111 -311 256 -311zM354 -13c-184 0 -322 131 -322 324c0 178 149 329 320 329c184 0 323 -133 323 -328c0 -177 -149 -325 -321 -325zM189 849h68l118 -184h-8z" />
    <glyph glyph-name="Otilde" unicode="&#xd5;" horiz-adv-x="707" 
d="M356 3c149 0 252 117 252 305c0 191 -113 316 -256 316c-148 0 -252 -119 -252 -310c0 -189 111 -311 256 -311zM354 -13c-184 0 -322 131 -322 324c0 178 149 329 320 329c184 0 323 -133 323 -328c0 -177 -149 -325 -321 -325zM423 673c-47 0 -111 62 -149 62
c-24 0 -41 -8 -49 -55h-11c8 63 32 94 72 94c47 0 111 -62 149 -62c23 0 40 12 48 55h10c-8 -63 -31 -94 -70 -94z" />
    <glyph glyph-name="Scaron" unicode="&#x160;" horiz-adv-x="474" 
d="M229 -14c-60 0 -128 11 -175 30l-17 147h15l22 -70c32 -61 85 -91 159 -91c99 0 162 59 162 143c0 83 -54 124 -167 162c-86 30 -162 70 -162 164c0 99 76 169 186 169c47 0 85 -10 109 -21l47 12l11 -156h-15l-54 120c-24 16 -59 29 -102 29c-85 0 -138 -54 -138 -122
c0 -77 62 -109 154 -141c94 -32 179 -75 179 -185c0 -108 -93 -190 -214 -190zM118 859h10l117 -127h2l116 127h10l-123 -186h-9z" />
    <glyph glyph-name="Uacute" unicode="&#xda;" horiz-adv-x="664" 
d="M345 -14c-156 0 -237 64 -237 229v380c0 7 -3 9 -42 12l-50 4l-3 14h253l-3 -14l-58 -5c-27 -3 -35 -8 -35 -13v-381c0 -139 69 -192 197 -192c127 0 182 74 182 211v357c0 11 -25 17 -68 20l-40 3l-3 14h224l-3 -14l-41 -3c-31 -3 -50 -7 -50 -22v-355
c0 -161 -80 -245 -223 -245zM427 849h68l-177 -184h-9z" />
    <glyph glyph-name="Ucircumflex" unicode="&#xdb;" horiz-adv-x="664" 
d="M345 -14c-156 0 -237 64 -237 229v380c0 7 -3 9 -42 12l-50 4l-3 14h253l-3 -14l-58 -5c-27 -3 -35 -8 -35 -13v-381c0 -139 69 -192 197 -192c127 0 182 74 182 211v357c0 11 -25 17 -68 20l-40 3l-3 14h224l-3 -14l-41 -3c-31 -3 -50 -7 -50 -22v-355
c0 -161 -80 -245 -223 -245zM349 843h9l123 -186h-10l-116 126h-2l-117 -126h-10z" />
    <glyph glyph-name="Udieresis" unicode="&#xdc;" horiz-adv-x="664" 
d="M345 -14c-156 0 -237 64 -237 229v380c0 7 -3 9 -42 12l-50 4l-3 14h253l-3 -14l-58 -5c-27 -3 -35 -8 -35 -13v-381c0 -139 69 -192 197 -192c127 0 182 74 182 211v357c0 11 -25 17 -68 20l-40 3l-3 14h224l-3 -14l-41 -3c-31 -3 -50 -7 -50 -22v-355
c0 -161 -80 -245 -223 -245zM432 677c-28 0 -42 23 -42 40c0 19 14 44 42 44c27 0 40 -25 40 -44c0 -17 -13 -40 -40 -40zM273 677c-27 0 -40 23 -40 40c0 19 13 44 40 44c28 0 42 -25 42 -44c0 -17 -14 -40 -42 -40z" />
    <glyph glyph-name="Ugrave" unicode="&#xd9;" horiz-adv-x="664" 
d="M345 -14c-156 0 -237 64 -237 229v380c0 7 -3 9 -42 12l-50 4l-3 14h253l-3 -14l-58 -5c-27 -3 -35 -8 -35 -13v-381c0 -139 69 -192 197 -192c127 0 182 74 182 211v357c0 11 -25 17 -68 20l-40 3l-3 14h224l-3 -14l-41 -3c-31 -3 -50 -7 -50 -22v-355
c0 -161 -80 -245 -223 -245zM202 849h68l118 -184h-8z" />
    <glyph glyph-name="Yacute" unicode="&#xdd;" horiz-adv-x="596" 
d="M171 14l61 5c23 2 35 6 35 12v246l-164 277c-20 36 -30 51 -66 54l-38 3l-3 14h237l-3 -14l-47 -2c-33 -1 -37 -9 -17 -44l151 -262h3l123 220c36 67 32 81 -26 86l-41 2l-3 14h219l-3 -14l-32 -2c-45 -3 -51 -4 -94 -85l-135 -238v-257c0 -7 4 -8 43 -11l53 -4l3 -14
h-259zM402 852h68l-177 -184h-9z" />
    <glyph glyph-name="Ydieresis" unicode="&#x178;" horiz-adv-x="596" 
d="M171 14l61 5c23 2 35 6 35 12v246l-164 277c-20 36 -30 51 -66 54l-38 3l-3 14h237l-3 -14l-47 -2c-33 -1 -37 -9 -17 -44l151 -262h3l123 220c36 67 32 81 -26 86l-41 2l-3 14h219l-3 -14l-32 -2c-45 -3 -51 -4 -94 -85l-135 -238v-257c0 -7 4 -8 43 -11l53 -4l3 -14
h-259zM388 681c-28 0 -42 23 -42 40c0 19 14 44 42 44c27 0 40 -25 40 -44c0 -17 -13 -40 -40 -40zM229 681c-27 0 -40 23 -40 40c0 19 13 44 40 44c28 0 42 -25 42 -44c0 -17 -14 -40 -42 -40z" />
    <glyph glyph-name="Zcaron" unicode="&#x17d;" horiz-adv-x="546" 
d="M31 11l402 596v3h-189c-110 0 -139 -38 -169 -119l-10 -42h-14l17 176h438v-11l-400 -595v-2l193 -2c138 0 168 50 192 135l13 47h16l-29 -197h-460v11zM146 846h10l117 -127h2l116 127h10l-123 -186h-9z" />
    <glyph glyph-name="aacute" unicode="&#xe1;" horiz-adv-x="399" 
d="M162 25c43 0 76 26 107 53l5 158c-150 -40 -187 -78 -187 -137c0 -47 28 -74 75 -74zM323 -11c-28 0 -57 25 -56 68l-1 2c-41 -39 -84 -69 -128 -69c-64 0 -106 41 -106 97c0 72 59 117 243 165l1 44c5 100 -47 123 -100 123c-45 0 -91 -28 -91 -42c0 -5 21 -17 21 -41
c0 -19 -16 -36 -39 -36c-21 0 -38 10 -38 37c0 45 102 105 178 105c78 0 126 -31 121 -143l-10 -241c-1 -28 9 -34 28 -34c15 0 33 13 50 32l8 -9c-23 -25 -46 -58 -81 -58zM277 680h68l-177 -184h-9z" />
    <glyph glyph-name="acircumflex" unicode="&#xe2;" horiz-adv-x="399" 
d="M162 25c43 0 76 26 107 53l5 158c-150 -40 -187 -78 -187 -137c0 -47 28 -74 75 -74zM323 -11c-28 0 -57 25 -56 68l-1 2c-41 -39 -84 -69 -128 -69c-64 0 -106 41 -106 97c0 72 59 117 243 165l1 44c5 100 -47 123 -100 123c-45 0 -91 -28 -91 -42c0 -5 21 -17 21 -41
c0 -19 -16 -36 -39 -36c-21 0 -38 10 -38 37c0 45 102 105 178 105c78 0 126 -31 121 -143l-10 -241c-1 -28 9 -34 28 -34c15 0 33 13 50 32l8 -9c-23 -25 -46 -58 -81 -58zM183 674h9l123 -186h-10l-116 126h-2l-117 -126h-10z" />
    <glyph glyph-name="adieresis" unicode="&#xe4;" horiz-adv-x="399" 
d="M162 25c43 0 76 26 107 53l5 158c-150 -40 -187 -78 -187 -137c0 -47 28 -74 75 -74zM323 -11c-28 0 -57 25 -56 68l-1 2c-41 -39 -84 -69 -128 -69c-64 0 -106 41 -106 97c0 72 59 117 243 165l1 44c5 100 -47 123 -100 123c-45 0 -91 -28 -91 -42c0 -5 21 -17 21 -41
c0 -19 -16 -36 -39 -36c-21 0 -38 10 -38 37c0 45 102 105 178 105c78 0 126 -31 121 -143l-10 -241c-1 -28 9 -34 28 -34c15 0 33 13 50 32l8 -9c-23 -25 -46 -58 -81 -58zM268 514c-28 0 -42 23 -42 40c0 19 14 44 42 44c27 0 40 -25 40 -44c0 -17 -13 -40 -40 -40z
M109 514c-27 0 -40 23 -40 40c0 19 13 44 40 44c28 0 42 -25 42 -44c0 -17 -14 -40 -42 -40z" />
    <glyph glyph-name="agrave" unicode="&#xe0;" horiz-adv-x="399" 
d="M162 25c43 0 76 26 107 53l5 158c-150 -40 -187 -78 -187 -137c0 -47 28 -74 75 -74zM323 -11c-28 0 -57 25 -56 68l-1 2c-41 -39 -84 -69 -128 -69c-64 0 -106 41 -106 97c0 72 59 117 243 165l1 44c5 100 -47 123 -100 123c-45 0 -91 -28 -91 -42c0 -5 21 -17 21 -41
c0 -19 -16 -36 -39 -36c-21 0 -38 10 -38 37c0 45 102 105 178 105c78 0 126 -31 121 -143l-10 -241c-1 -28 9 -34 28 -34c15 0 33 13 50 32l8 -9c-23 -25 -46 -58 -81 -58zM46 680h68l118 -184h-8z" />
    <glyph glyph-name="aring" unicode="&#xe5;" horiz-adv-x="399" 
d="M162 25c43 0 76 26 107 53l5 158c-150 -40 -187 -78 -187 -137c0 -47 28 -74 75 -74zM323 -11c-28 0 -57 25 -56 68l-1 2c-41 -39 -84 -69 -128 -69c-64 0 -106 41 -106 97c0 72 59 117 243 165l1 44c5 100 -47 123 -100 123c-45 0 -91 -28 -91 -42c0 -5 21 -17 21 -41
c0 -19 -16 -36 -39 -36c-21 0 -38 10 -38 37c0 45 102 105 178 105c78 0 126 -31 121 -143l-10 -241c-1 -28 9 -34 28 -34c15 0 33 13 50 32l8 -9c-23 -25 -46 -58 -81 -58zM206 516c45 0 73 35 73 76s-28 76 -73 76c-47 0 -74 -35 -74 -76s27 -76 74 -76zM206 502
c-56 0 -89 41 -89 90s33 90 89 90s89 -41 89 -90s-33 -90 -89 -90z" />
    <glyph glyph-name="atilde" unicode="&#xe3;" horiz-adv-x="399" 
d="M162 25c43 0 76 26 107 53l5 158c-150 -40 -187 -78 -187 -137c0 -47 28 -74 75 -74zM323 -11c-28 0 -57 25 -56 68l-1 2c-41 -39 -84 -69 -128 -69c-64 0 -106 41 -106 97c0 72 59 117 243 165l1 44c5 100 -47 123 -100 123c-45 0 -91 -28 -91 -42c0 -5 21 -17 21 -41
c0 -19 -16 -36 -39 -36c-21 0 -38 10 -38 37c0 45 102 105 178 105c78 0 126 -31 121 -143l-10 -241c-1 -28 9 -34 28 -34c15 0 33 13 50 32l8 -9c-23 -25 -46 -58 -81 -58zM274 504c-47 0 -111 62 -149 62c-24 0 -41 -8 -49 -55h-11c8 63 32 94 72 94c47 0 111 -62 149 -62
c23 0 40 12 48 55h10c-8 -63 -31 -94 -70 -94z" />
    <glyph glyph-name="ccedilla" unicode="&#xe7;" horiz-adv-x="413" 
d="M220 -12c-108 3 -195 93 -195 217c0 134 96 237 221 237c81 0 140 -39 140 -90c0 -25 -19 -44 -39 -44c-27 0 -44 19 -37 48c0 23 14 26 14 33c-3 13 -39 38 -81 38c-85 0 -160 -84 -160 -197c0 -117 70 -202 161 -202c63 0 103 25 140 82l12 -7
c-36 -65 -86 -109 -157 -114l-52 -59c68 11 128 -16 128 -70c0 -60 -76 -101 -181 -109l-3 7c93 11 148 43 148 88c0 33 -27 52 -75 52c-27 0 -48 -5 -63 -9v9z" />
    <glyph glyph-name="eacute" unicode="&#xe9;" horiz-adv-x="417" 
d="M326 300c0 72 -32 126 -99 126c-56 0 -115 -53 -136 -128zM223 -12c-109 0 -198 93 -198 217c0 131 87 237 210 237c97 0 152 -64 152 -134c0 -11 -1 -17 -2 -26l-297 2c-3 -15 -5 -38 -5 -55c0 -117 70 -201 161 -201c63 0 102 25 141 82l11 -7
c-39 -71 -94 -115 -173 -115zM299 680h68l-177 -184h-9z" />
    <glyph glyph-name="ecircumflex" unicode="&#xea;" horiz-adv-x="417" 
d="M326 300c0 72 -32 126 -99 126c-56 0 -115 -53 -136 -128zM223 -12c-109 0 -198 93 -198 217c0 131 87 237 210 237c97 0 152 -64 152 -134c0 -11 -1 -17 -2 -26l-297 2c-3 -15 -5 -38 -5 -55c0 -117 70 -201 161 -201c63 0 102 25 141 82l11 -7
c-39 -71 -94 -115 -173 -115zM217 674h9l123 -186h-10l-116 126h-2l-117 -126h-10z" />
    <glyph glyph-name="edieresis" unicode="&#xeb;" horiz-adv-x="417" 
d="M326 300c0 72 -32 126 -99 126c-56 0 -115 -53 -136 -128zM223 -12c-109 0 -198 93 -198 217c0 131 87 237 210 237c97 0 152 -64 152 -134c0 -11 -1 -17 -2 -26l-297 2c-3 -15 -5 -38 -5 -55c0 -117 70 -201 161 -201c63 0 102 25 141 82l11 -7
c-39 -71 -94 -115 -173 -115zM298 514c-28 0 -42 23 -42 40c0 19 14 44 42 44c27 0 40 -25 40 -44c0 -17 -13 -40 -40 -40zM139 514c-27 0 -40 23 -40 40c0 19 13 44 40 44c28 0 42 -25 42 -44c0 -17 -14 -40 -42 -40z" />
    <glyph glyph-name="egrave" unicode="&#xe8;" horiz-adv-x="417" 
d="M326 300c0 72 -32 126 -99 126c-56 0 -115 -53 -136 -128zM223 -12c-109 0 -198 93 -198 217c0 131 87 237 210 237c97 0 152 -64 152 -134c0 -11 -1 -17 -2 -26l-297 2c-3 -15 -5 -38 -5 -55c0 -117 70 -201 161 -201c63 0 102 25 141 82l11 -7
c-39 -71 -94 -115 -173 -115zM73 680h68l118 -184h-8z" />
    <glyph glyph-name="iacute" unicode="&#xed;" horiz-adv-x="219" 
d="M19 14l35 2c23 1 30 1 30 12v312c0 47 -5 55 -32 58l-39 5l2 10l123 28v-415c0 -7 4 -7 36 -10l32 -2l3 -14h-193zM182 680h68l-177 -184h-9z" />
    <glyph glyph-name="icircumflex" unicode="&#xee;" horiz-adv-x="219" 
d="M103 674h10l114 -186h-10l-108 125h-2l-110 -125h-10zM19 14l35 2c23 1 30 1 30 12v312c0 47 -5 55 -32 58l-39 5l2 10l123 28v-415c0 -7 4 -7 36 -10l32 -2l3 -14h-193z" />
    <glyph glyph-name="idieresis" unicode="&#xef;" horiz-adv-x="219" 
d="M19 14l35 2c23 1 30 1 30 12v312c0 47 -5 55 -32 58l-39 5l2 10l123 28v-415c0 -7 4 -7 36 -10l32 -2l3 -14h-193zM188 514c-28 0 -42 23 -42 40c0 19 14 44 42 44c27 0 40 -25 40 -44c0 -17 -13 -40 -40 -40zM29 514c-27 0 -40 23 -40 40c0 19 13 44 40 44
c28 0 42 -25 42 -44c0 -17 -14 -40 -42 -40z" />
    <glyph glyph-name="igrave" unicode="&#xec;" horiz-adv-x="219" 
d="M19 14l35 2c23 1 30 1 30 12v312c0 47 -5 55 -32 58l-39 5l2 10l123 28v-415c0 -7 4 -7 36 -10l32 -2l3 -14h-193zM-40 680h68l118 -184h-8z" />
    <glyph glyph-name="ntilde" unicode="&#xf1;" horiz-adv-x="494" 
d="M20 14l33 2c23 1 31 1 31 12v313c0 45 -6 54 -30 57l-41 5l1 10l124 28l-2 -86l3 -2c42 37 100 89 167 89c33 0 59 -10 78 -29c21 -23 33 -54 33 -98v-288c0 -7 1 -8 36 -11l32 -2l3 -14h-191l3 14l34 2c27 1 31 5 31 12v269c0 72 -36 103 -93 103
c-51 0 -98 -30 -135 -65v-124v-185c0 -7 5 -7 37 -10l31 -2l4 -14h-192zM316 504c-47 0 -111 62 -149 62c-24 0 -41 -8 -49 -55h-11c8 63 32 94 72 94c47 0 111 -62 149 -62c23 0 40 12 48 55h10c-8 -63 -31 -94 -70 -94z" />
    <glyph glyph-name="oacute" unicode="&#xf3;" horiz-adv-x="486" 
d="M245 1c87 0 154 92 154 208c0 73 -16 136 -55 175c-27 29 -61 43 -101 43c-89 0 -157 -90 -157 -204c0 -77 22 -145 61 -184c25 -25 58 -38 98 -38zM244 -13c-122 0 -218 95 -218 225c0 131 96 230 219 230c120 0 216 -96 216 -224c0 -133 -97 -231 -217 -231zM332 680
h68l-177 -184h-9z" />
    <glyph glyph-name="ocircumflex" unicode="&#xf4;" horiz-adv-x="486" 
d="M245 1c87 0 154 92 154 208c0 73 -16 136 -55 175c-27 29 -61 43 -101 43c-89 0 -157 -90 -157 -204c0 -77 22 -145 61 -184c25 -25 58 -38 98 -38zM244 -13c-122 0 -218 95 -218 225c0 131 96 230 219 230c120 0 216 -96 216 -224c0 -133 -97 -231 -217 -231zM238 674h9
l123 -186h-10l-116 126h-2l-117 -126h-10z" />
    <glyph glyph-name="odieresis" unicode="&#xf6;" horiz-adv-x="486" 
d="M245 1c87 0 154 92 154 208c0 73 -16 136 -55 175c-27 29 -61 43 -101 43c-89 0 -157 -90 -157 -204c0 -77 22 -145 61 -184c25 -25 58 -38 98 -38zM244 -13c-122 0 -218 95 -218 225c0 131 96 230 219 230c120 0 216 -96 216 -224c0 -133 -97 -231 -217 -231zM322 514
c-28 0 -42 23 -42 40c0 19 14 44 42 44c27 0 40 -25 40 -44c0 -17 -13 -40 -40 -40zM163 514c-27 0 -40 23 -40 40c0 19 13 44 40 44c28 0 42 -25 42 -44c0 -17 -14 -40 -42 -40z" />
    <glyph glyph-name="ograve" unicode="&#xf2;" horiz-adv-x="486" 
d="M245 1c87 0 154 92 154 208c0 73 -16 136 -55 175c-27 29 -61 43 -101 43c-89 0 -157 -90 -157 -204c0 -77 22 -145 61 -184c25 -25 58 -38 98 -38zM244 -13c-122 0 -218 95 -218 225c0 131 96 230 219 230c120 0 216 -96 216 -224c0 -133 -97 -231 -217 -231zM78 680h68
l118 -184h-8z" />
    <glyph glyph-name="otilde" unicode="&#xf5;" horiz-adv-x="486" 
d="M245 1c87 0 154 92 154 208c0 73 -16 136 -55 175c-27 29 -61 43 -101 43c-89 0 -157 -90 -157 -204c0 -77 22 -145 61 -184c25 -25 58 -38 98 -38zM244 -13c-122 0 -218 95 -218 225c0 131 96 230 219 230c120 0 216 -96 216 -224c0 -133 -97 -231 -217 -231zM312 504
c-47 0 -111 62 -149 62c-24 0 -41 -8 -49 -55h-11c8 63 32 94 72 94c47 0 111 -62 149 -62c23 0 40 12 48 55h10c-8 -63 -31 -94 -70 -94z" />
    <glyph glyph-name="scaron" unicode="&#x161;" horiz-adv-x="354" 
d="M163 -13c-43 0 -86 7 -122 22l-11 114h14l20 -59c27 -43 66 -63 105 -63c64 0 108 37 108 93c0 60 -45 84 -117 107c-56 16 -118 49 -118 120c0 68 60 122 138 122c32 0 59 -7 86 -18l32 9l7 -112h-15l-38 82c-19 12 -40 24 -75 24c-57 0 -91 -32 -91 -80
c0 -56 47 -74 106 -96c64 -21 131 -45 131 -132c0 -72 -64 -133 -160 -133zM48 674h10l117 -127h2l116 127h10l-123 -186h-9z" />
    <glyph glyph-name="uacute" unicode="&#xfa;" horiz-adv-x="473" 
d="M353 73h-2c-43 -35 -99 -86 -166 -86c-35 0 -59 10 -82 30c-23 23 -31 56 -31 97v288c0 7 0 7 -37 10l-31 3l-3 13h124v-296c0 -72 34 -104 94 -104c51 0 95 28 132 63v101v182c0 31 -6 37 -37 38l-31 3l-3 13h125v-378c0 -17 2 -25 26 -28l45 -3l-2 -10l-123 -24z
M327 680h68l-177 -184h-9z" />
    <glyph glyph-name="ucircumflex" unicode="&#xfb;" horiz-adv-x="473" 
d="M353 73h-2c-43 -35 -99 -86 -166 -86c-35 0 -59 10 -82 30c-23 23 -31 56 -31 97v288c0 7 0 7 -37 10l-31 3l-3 13h124v-296c0 -72 34 -104 94 -104c51 0 95 28 132 63v101v182c0 31 -6 37 -37 38l-31 3l-3 13h125v-378c0 -17 2 -25 26 -28l45 -3l-2 -10l-123 -24z
M227 674h9l123 -186h-10l-116 126h-2l-117 -126h-10z" />
    <glyph glyph-name="udieresis" unicode="&#xfc;" horiz-adv-x="473" 
d="M353 73h-2c-43 -35 -99 -86 -166 -86c-35 0 -59 10 -82 30c-23 23 -31 56 -31 97v288c0 7 0 7 -37 10l-31 3l-3 13h124v-296c0 -72 34 -104 94 -104c51 0 95 28 132 63v101v182c0 31 -6 37 -37 38l-31 3l-3 13h125v-378c0 -17 2 -25 26 -28l45 -3l-2 -10l-123 -24z
M311 514c-28 0 -42 23 -42 40c0 19 14 44 42 44c27 0 40 -25 40 -44c0 -17 -13 -40 -40 -40zM152 514c-27 0 -40 23 -40 40c0 19 13 44 40 44c28 0 42 -25 42 -44c0 -17 -14 -40 -42 -40z" />
    <glyph glyph-name="ugrave" unicode="&#xf9;" horiz-adv-x="473" 
d="M353 73h-2c-43 -35 -99 -86 -166 -86c-35 0 -59 10 -82 30c-23 23 -31 56 -31 97v288c0 7 0 7 -37 10l-31 3l-3 13h124v-296c0 -72 34 -104 94 -104c51 0 95 28 132 63v101v182c0 31 -6 37 -37 38l-31 3l-3 13h125v-378c0 -17 2 -25 26 -28l45 -3l-2 -10l-123 -24z
M105 680h68l118 -184h-8z" />
    <glyph glyph-name="yacute" unicode="&#xfd;" horiz-adv-x="435" 
d="M77 -259c-32 0 -56 19 -56 42s16 42 41 42c23 0 42 -18 46 -49c40 9 59 51 88 142l22 70v1l-153 377c-15 39 -18 45 -41 46l-29 3l-3 13h183l-2 -13l-27 -3c-28 -1 -33 -11 -22 -39l122 -309l97 267c24 66 18 77 -28 80l-28 4l-3 13h165l-3 -13l-23 -3
c-34 -3 -36 -14 -65 -89l-121 -325l-32 -104c-31 -105 -65 -153 -128 -153zM306 680h68l-177 -184h-9z" />
    <glyph glyph-name="ydieresis" unicode="&#xff;" horiz-adv-x="435" 
d="M77 -259c-32 0 -56 19 -56 42s16 42 41 42c23 0 42 -18 46 -49c40 9 59 51 88 142l22 70v1l-153 377c-15 39 -18 45 -41 46l-29 3l-3 13h183l-2 -13l-27 -3c-28 -1 -33 -11 -22 -39l122 -309l97 267c24 66 18 77 -28 80l-28 4l-3 13h165l-3 -13l-23 -3
c-34 -3 -36 -14 -65 -89l-121 -325l-32 -104c-31 -105 -65 -153 -128 -153zM306 514c-28 0 -42 23 -42 40c0 19 14 44 42 44c27 0 40 -25 40 -44c0 -17 -13 -40 -40 -40zM147 514c-27 0 -40 23 -40 40c0 19 13 44 40 44c28 0 42 -25 42 -44c0 -17 -14 -40 -42 -40z" />
    <glyph glyph-name="zcaron" unicode="&#x17e;" horiz-adv-x="403" 
d="M20 11l281 403h-95c-104 0 -120 -24 -142 -83l-9 -46h-13l4 143h319v-10l-283 -403l107 -1c102 0 127 28 159 81l22 48h12l-36 -143h-326v11zM66 674h10l117 -127h2l116 127h10l-123 -186h-9z" />
    <glyph glyph-name="pi" unicode="&#x3c0;" horiz-adv-x="713" 
d="M375 303c68 0 97 33 97 93c0 56 -33 87 -109 86h-22c-7 0 -14 0 -21 -1v-170c12 -3 31 -8 55 -8zM221 134l38 4c16 1 21 5 21 9v324c0 5 -2 6 -25 9l-33 2l-3 12h157c91 0 136 -35 136 -95c0 -64 -63 -107 -138 -107c-19 0 -42 3 -54 4v-150c0 -4 1 -6 24 -9l42 -3l2 -11
h-169zM357 2c171 0 310 139 310 311s-139 312 -310 312c-172 0 -311 -140 -311 -312s139 -311 311 -311zM357 -14c-181 0 -327 146 -327 327c0 180 146 328 327 328s327 -148 327 -328c0 -181 -146 -327 -327 -327z" />
    <glyph glyph-name="Omega" unicode="&#x2126;" horiz-adv-x="526" 
d="M23 14l35 2c21 1 30 1 30 12v365l-74 2l8 32h64l2 18c13 143 92 218 192 218c51 0 74 -20 74 -49c0 -17 -13 -34 -34 -34c-25 0 -47 27 -46 58l-27 8c-76 -15 -106 -80 -106 -191v-28h202l1 23c11 144 94 223 179 223c36 0 61 -18 61 -45c0 -17 -15 -34 -35 -34
c-24 0 -47 21 -51 48l-1 7l-16 2c-60 -21 -84 -88 -84 -188v-36h114l-9 -34h-105v-367c0 -7 1 -9 32 -10l51 -2l3 -14h-206l3 14l35 2c23 1 30 1 30 12v366h-204v-368c0 -7 -1 -9 32 -10l51 -2l3 -14h-207z" />
    <glyph glyph-name="radical" unicode="&#x221a;" horiz-adv-x="739" 
d="M654 680v-654c0 -7 5 -9 37 -10l32 -2l3 -14h-192l3 14l34 2c23 1 31 1 31 12v366h-205v-368c0 -7 -1 -9 32 -10l51 -2l3 -14h-206l3 14l35 2c23 1 30 1 30 12v366h-204v-368c0 -7 -1 -9 32 -10l51 -2l3 -14h-207l3 14l35 2c21 1 30 1 30 12v365l-74 2l8 32h64l2 18
c13 143 92 218 192 218c51 0 74 -20 74 -49c0 -17 -13 -34 -34 -34c-25 0 -47 27 -46 58l-27 8c-76 -15 -106 -80 -106 -191v-28h202l1 25c13 143 95 221 200 221c30 0 53 -6 68 -17zM602 582h-3c-29 0 -51 25 -51 62l-42 12c-75 -15 -109 -81 -109 -192v-37h205v155z" />
    <glyph glyph-name="approxequal" unicode="&#x2248;" horiz-adv-x="735" 
d="M23 14l35 2c21 1 30 1 30 12v365l-74 2l8 32h64l2 18c13 143 92 218 192 218c51 0 74 -20 74 -49c0 -17 -13 -34 -34 -34c-25 0 -49 27 -46 58l-27 8c-76 -15 -106 -80 -106 -191v-28h202l1 25c13 143 96 221 201 221c53 0 86 -23 86 -59c0 -17 -16 -34 -35 -34
c-31 0 -53 27 -50 66l-38 10c-76 -15 -111 -81 -111 -192v-37h191l66 13v-414c0 -7 5 -7 37 -10l32 -2l3 -14h-192l3 13l35 2c23 3 30 2 30 13v366h-205v-368c0 -7 -1 -9 32 -10l51 -2l3 -14h-206l3 14l35 2c23 1 30 1 30 12v366h-204v-368c0 -7 -1 -9 32 -10l51 -2l3 -14
h-207z" />
    <glyph glyph-name="Delta" unicode="&#x2206;" horiz-adv-x="449" 
d="M159 -12c-97 0 -136 51 -136 88c0 27 18 48 45 48s43 -21 43 -41c0 -16 -5 -36 -38 -45c19 -23 48 -35 87 -35c75 0 110 47 110 160v433c0 7 -3 8 -42 11l-53 4l-3 15h256l-3 -15l-58 -5c-23 -2 -35 -6 -35 -12v-446c0 -76 -69 -160 -173 -160z" />
    <glyph glyph-name="nbspace" unicode="&#xa0;" horiz-adv-x="139" 
 />
    <glyph glyph-name="apple" unicode="&#xf8ff;" horiz-adv-x="758" 
d="M442 169l176 -88l-87 177l184 63l-184 61l87 176l-176 -87l-62 185l-64 -185l-175 87l87 -176l-186 -62l186 -64l-87 -175l175 88l62 -186zM294 115l-187 -68l68 187l-181 86l181 83l-68 189l187 -69l86 181l83 -181l189 69l-69 -189l180 -82l-180 -85l69 -189l-189 69
l-85 -181z" />
    <glyph glyph-name=".null" horiz-adv-x="0" 
 />
    <glyph glyph-name=".null" horiz-adv-x="0" 
 />
    <glyph glyph-name="Euro" unicode="&#x20ac;" horiz-adv-x="473" 
d="M289 -14c-112 0 -198 94 -222 233h-64l3 17h58c-2 19 -3 39 -3 59c0 19 0 38 3 54h-61l3 18h61c24 155 116 267 245 267c83 0 142 -40 142 -89c0 -23 -19 -40 -38 -40c-44 0 -48 55 -24 76c-13 20 -43 39 -83 39c-96 0 -171 -111 -187 -253h206l3 -18h-212
c1 -11 -1 -24 -1 -35c0 -27 2 -53 7 -78h203l3 -17h-203c24 -120 91 -196 180 -196c65 0 114 36 145 95l10 -7c-37 -72 -90 -125 -174 -125z" />
    </font>
</defs>
</svg>
